<?xml version="1.0" encoding="UTF-8" standalone="no"?>
<!-- Created with Inkscape (http://www.inkscape.org/) -->

<svg
   xmlns:dc="http://purl.org/dc/elements/1.1/"
   xmlns:cc="http://creativecommons.org/ns#"
   xmlns:rdf="http://www.w3.org/1999/02/22-rdf-syntax-ns#"
   xmlns:svg="http://www.w3.org/2000/svg"
   xmlns="http://www.w3.org/2000/svg"
   xmlns:sodipodi="http://sodipodi.sourceforge.net/DTD/sodipodi-0.dtd"
   xmlns:inkscape="http://www.inkscape.org/namespaces/inkscape"
   width="210mm"
   height="297mm"
   viewBox="0 0 210 297"
   version="1.1"
   id="svg8"
   inkscape:version="0.92.3 (2405546, 2018-03-11)"
   sodipodi:docname="SBOLVisualLogo.svg">
  <defs
     id="defs2">
    <clipPath
       id="clipPath1118"
       clipPathUnits="userSpaceOnUse">
      <path
         inkscape:connector-curvature="0"
         id="path1116"
         d="M 0,1280 H 1080 V 0 H 0 Z" />
    </clipPath>
    <clipPath
       id="clipPath1130"
       clipPathUnits="userSpaceOnUse">
      <path
         inkscape:connector-curvature="0"
         id="path1128"
         d="M 0,1280 H 1080 V 0 H 0 Z" />
    </clipPath>
    <clipPath
       id="clipPath1142"
       clipPathUnits="userSpaceOnUse">
      <path
         inkscape:connector-curvature="0"
         id="path1140"
         d="M 0,1280 H 1080 V 0 H 0 Z" />
    </clipPath>
    <clipPath
       id="clipPath1154"
       clipPathUnits="userSpaceOnUse">
      <path
         inkscape:connector-curvature="0"
         id="path1152"
         d="M 0,1280 H 1080 V 0 H 0 Z" />
    </clipPath>
    <clipPath
       id="clipPath1166"
       clipPathUnits="userSpaceOnUse">
      <path
         inkscape:connector-curvature="0"
         id="path1164"
         d="M 0,1280 H 1080 V 0 H 0 Z" />
    </clipPath>
    <clipPath
       id="clipPath1178"
       clipPathUnits="userSpaceOnUse">
      <path
         inkscape:connector-curvature="0"
         id="path1176"
         d="M 0,1280 H 1080 V 0 H 0 Z" />
    </clipPath>
    <clipPath
       id="clipPath1190"
       clipPathUnits="userSpaceOnUse">
      <path
         inkscape:connector-curvature="0"
         id="path1188"
         d="M 0,1280 H 1080 V 0 H 0 Z" />
    </clipPath>
    <clipPath
       id="clipPath1202"
       clipPathUnits="userSpaceOnUse">
      <path
         inkscape:connector-curvature="0"
         id="path1200"
         d="M 0,1280 H 1080 V 0 H 0 Z" />
    </clipPath>
    <clipPath
       id="clipPath1214"
       clipPathUnits="userSpaceOnUse">
      <path
         inkscape:connector-curvature="0"
         id="path1212"
         d="M 0,1280 H 1080 V 0 H 0 Z" />
    </clipPath>
    <clipPath
       id="clipPath1226"
       clipPathUnits="userSpaceOnUse">
      <path
         inkscape:connector-curvature="0"
         id="path1224"
         d="M 0,1280 H 1080 V 0 H 0 Z" />
    </clipPath>
    <clipPath
       id="clipPath1238"
       clipPathUnits="userSpaceOnUse">
      <path
         inkscape:connector-curvature="0"
         id="path1236"
         d="M 0,1280 H 1080 V 0 H 0 Z" />
    </clipPath>
    <clipPath
       id="clipPath1250"
       clipPathUnits="userSpaceOnUse">
      <path
         inkscape:connector-curvature="0"
         id="path1248"
         d="M 0,1280 H 1080 V 0 H 0 Z" />
    </clipPath>
    <clipPath
       id="clipPath1262"
       clipPathUnits="userSpaceOnUse">
      <path
         inkscape:connector-curvature="0"
         id="path1260"
         d="M 0,1280 H 1080 V 0 H 0 Z" />
    </clipPath>
    <clipPath
       id="clipPath1274"
       clipPathUnits="userSpaceOnUse">
      <path
         inkscape:connector-curvature="0"
         id="path1272"
         d="M 0,1280 H 1080 V 0 H 0 Z" />
    </clipPath>
    <clipPath
       id="clipPath1286"
       clipPathUnits="userSpaceOnUse">
      <path
         inkscape:connector-curvature="0"
         id="path1284"
         d="M 0,1280 H 1080 V 0 H 0 Z" />
    </clipPath>
    <clipPath
       id="clipPath1298"
       clipPathUnits="userSpaceOnUse">
      <path
         inkscape:connector-curvature="0"
         id="path1296"
         d="M 0,1280 H 1080 V 0 H 0 Z" />
    </clipPath>
    <clipPath
       id="clipPath1310"
       clipPathUnits="userSpaceOnUse">
      <path
         inkscape:connector-curvature="0"
         id="path1308"
         d="M 0,1280 H 1080 V 0 H 0 Z" />
    </clipPath>
    <clipPath
       id="clipPath1322"
       clipPathUnits="userSpaceOnUse">
      <path
         inkscape:connector-curvature="0"
         id="path1320"
         d="M 0,1280 H 1080 V 0 H 0 Z" />
    </clipPath>
    <clipPath
       id="clipPath1334"
       clipPathUnits="userSpaceOnUse">
      <path
         inkscape:connector-curvature="0"
         id="path1332"
         d="M 0,1280 H 1080 V 0 H 0 Z" />
    </clipPath>
    <clipPath
       id="clipPath1346"
       clipPathUnits="userSpaceOnUse">
      <path
         inkscape:connector-curvature="0"
         id="path1344"
         d="M 0,1280 H 1080 V 0 H 0 Z" />
    </clipPath>
  </defs>
  <sodipodi:namedview
     id="base"
     pagecolor="#ffffff"
     bordercolor="#666666"
     borderopacity="1.0"
     inkscape:pageopacity="0.0"
     inkscape:pageshadow="2"
     inkscape:zoom="0.49497475"
     inkscape:cx="265.38776"
     inkscape:cy="-501.7013"
     inkscape:document-units="mm"
     inkscape:current-layer="layer1"
     showgrid="false"
     inkscape:window-width="3840"
     inkscape:window-height="2028"
     inkscape:window-x="-16"
     inkscape:window-y="-16"
     inkscape:window-maximized="1" />
  <metadata
     id="metadata5">
    <rdf:RDF>
      <cc:Work
         rdf:about="">
        <dc:format>image/svg+xml</dc:format>
        <dc:type
           rdf:resource="http://purl.org/dc/dcmitype/StillImage" />
        <dc:title></dc:title>
      </cc:Work>
    </rdf:RDF>
  </metadata>
  <g
     inkscape:label="Layer 1"
     inkscape:groupmode="layer"
     id="layer1">
    <g
       transform="matrix(0.35277777,0,0,-0.35277777,4.6631729,351.76317)"
       inkscape:label="SBOLVisual"
       id="g1110"
       inkscape:export-xdpi="500"
       inkscape:export-ydpi="500">
      <g
         transform="translate(-233.50536,-245.62413)"
         id="g1112">
        <g
           clip-path="url(#clipPath1118)"
           id="g1114">
          <g
             transform="translate(352.2795,840.19099)"
             id="g1120">
            <path
               inkscape:connector-curvature="0"
               id="path1122"
               style="fill:#232323;fill-opacity:1;fill-rule:nonzero;stroke:none"
               d="m 0,0 c 5.781,2.225 11.269,-0.889 13.345,-5.189 2.224,-4.598 7.265,-9.639 16.458,-9.639 8.75,0 14.829,4.151 14.977,10.825 0.149,4.596 -1.927,8.601 -12.306,11.566 l -12.307,3.412 c -22.54,6.967 -26.395,19.869 -26.395,29.061 0,18.24 15.57,30.547 35.142,30.547 14.68,0 25.653,-6.377 31.14,-17.053 2.519,-4.892 0.444,-9.638 -3.262,-12.009 -5.339,-3.412 -10.085,-1.93 -13.643,2.519 -4.299,5.486 -9.935,7.117 -14.53,7.117 -7.563,0 -13.199,-4.447 -13.199,-10.528 0,-2.668 1.038,-7.561 10.975,-10.38 L 38.553,26.692 C 63.316,19.572 66.874,5.636 66.579,-4.151 66.282,-24.467 47.894,-34.105 29.803,-34.105 c -18.088,0 -31.138,8.749 -35.587,21.945 C -7.414,-6.968 -5.041,-1.927 0,0" />
          </g>
        </g>
      </g>
      <g
         transform="translate(-233.50536,-245.62413)"
         id="g1124">
        <g
           clip-path="url(#clipPath1130)"
           id="g1126">
          <g
             transform="translate(456.1154,851.6089)"
             id="g1132">
            <path
               inkscape:connector-curvature="0"
               id="path1134"
               style="fill:#232323;fill-opacity:1;fill-rule:nonzero;stroke:none"
               d="m 0,0 v -25.06 h 20.908 c 7.266,0 10.974,6.674 10.974,12.753 C 31.882,-6.525 28.174,0 20.464,0 Z m 17.054,17.201 c 5.633,0 9.489,4.744 9.489,10.825 0,6.374 -3.262,10.824 -9.639,10.824 H 0 V 17.201 Z m -30.252,-61.389 c -5.485,0 -8.599,4.3 -8.599,9.193 v 83.78 c 0.147,5.041 3.114,9.194 8.599,9.194 h 32.327 c 18.386,0 30.249,-10.972 30.249,-28.471 0,-6.673 -3.411,-15.125 -13.939,-19.129 13.496,-3.411 19.278,-14.977 19.278,-23.28 0,-16.905 -12.307,-31.287 -32.622,-31.287 z" />
          </g>
        </g>
      </g>
      <g
         transform="translate(-233.50536,-245.62413)"
         id="g1136">
        <g
           clip-path="url(#clipPath1142)"
           id="g1138">
          <g
             transform="translate(695.6106,826.40089)"
             id="g1144">
            <path
               inkscape:connector-curvature="0"
               id="path1146"
               style="fill:#232323;fill-opacity:1;fill-rule:nonzero;stroke:none"
               d="m 0,0 h 29.508 c 4.892,0 8.896,-4.301 8.896,-9.49 0,-4.893 -4.152,-9.342 -8.896,-9.49 H -13.05 c -5.487,0 -8.6,4.152 -8.6,9.193 v 83.632 c 0.148,5.338 5.189,10.082 10.825,10.082 C -4.895,83.927 0,79.332 0,73.845 Z" />
          </g>
        </g>
      </g>
      <g
         transform="translate(-233.50536,-245.62413)"
         id="g1148">
        <g
           clip-path="url(#clipPath1154)"
           id="g1150">
          <g
             transform="translate(656.8479,832.86771)"
             id="g1156">
            <path
               inkscape:connector-curvature="0"
               id="path1158"
               style="fill:#5b4d9e;fill-opacity:1;fill-rule:nonzero;stroke:none"
               d="m 0,0 c -4.806,2.781 -8.653,6.811 -11.25,11.532 -2.104,-8.154 -5.957,-15.61 -11.123,-21.957 3.294,-3.392 7.059,-6.372 11.25,-8.797 1.751,-1.013 3.664,-1.495 5.551,-1.495 3.834,0 7.563,1.988 9.622,5.545 C 7.12,-9.863 5.308,-3.07 0,0" />
          </g>
        </g>
      </g>
      <g
         transform="translate(-233.50536,-245.62413)"
         id="g1160">
        <g
           clip-path="url(#clipPath1166)"
           id="g1162">
          <g
             transform="translate(641.86839,858.817)"
             id="g1168">
            <path
               inkscape:connector-curvature="0"
               id="path1170"
               style="fill:#5b4d9e;fill-opacity:1;fill-rule:nonzero;stroke:none"
               d="m 0,0 v -0.003 -0.003 0.003 z" />
          </g>
        </g>
      </g>
      <g
         transform="translate(-233.50536,-245.62413)"
         id="g1172">
        <g
           clip-path="url(#clipPath1178)"
           id="g1174">
          <g
             transform="translate(533.7043,903.981)"
             id="g1180">
            <path
               inkscape:connector-curvature="0"
               id="path1182"
               style="fill:#5b4d9e;fill-opacity:1;fill-rule:nonzero;stroke:none"
               d="m 0,0 c -5.31,3.071 -12.101,1.258 -15.172,-4.05 -3.072,-5.308 -1.26,-12.101 4.049,-15.173 4.804,-2.78 8.65,-6.809 11.247,-11.531 2.105,8.154 5.957,15.611 11.124,21.958 C 7.954,-5.403 4.189,-2.425 0,0" />
          </g>
        </g>
      </g>
      <g
         transform="translate(-233.50536,-245.62413)"
         id="g1184">
        <g
           clip-path="url(#clipPath1190)"
           id="g1186">
          <g
             transform="translate(619.6604,858.8121)"
             id="g1192">
            <path
               inkscape:connector-curvature="0"
               id="path1194"
               style="fill:#5b4d9e;fill-opacity:1;fill-rule:nonzero;stroke:none"
               d="M 0,0 V 0.002 0.004 0.002 Z" />
          </g>
        </g>
      </g>
      <g
         transform="translate(-233.50536,-245.62415)"
         id="g1196">
        <g
           clip-path="url(#clipPath1202)"
           id="g1198">
          <g
             transform="translate(589.7141,910.96831)"
             id="g1204">
            <path
               inkscape:connector-curvature="0"
               id="path1206"
               style="fill:#5b4d9e;fill-opacity:1;fill-rule:nonzero;stroke:none"
               d="m 0,0 c -28.76,0 -52.156,-23.396 -52.156,-52.154 0,-5.115 -1.334,-10.058 -3.73,-14.414 -2.596,-4.721 -6.443,-8.751 -11.247,-11.532 -5.308,-3.071 -7.121,-9.864 -4.049,-15.171 2.058,-3.558 5.786,-5.545 9.621,-5.545 1.887,0 3.799,0.481 5.551,1.495 4.19,2.425 7.954,5.403 11.248,8.796 1.316,1.354 2.305,2.372 3.759,4.198 6.876,8.657 11.055,20.027 11.055,32.098 0,16.513 13.433,30.021 29.948,30.021 11.29,0 21.138,-6.282 26.239,-15.533 2.106,8.147 5.941,15.601 11.104,21.943 C 27.862,-6.062 14.629,0 0,0" />
          </g>
        </g>
      </g>
      <g
         transform="translate(-233.50534,-245.62413)"
         id="g1208">
        <g
           clip-path="url(#clipPath1214)"
           id="g1210">
          <g
             transform="translate(641.86839,858.817)"
             id="g1216">
            <path
               inkscape:connector-curvature="0"
               id="path1218"
               style="fill:#5b4d9e;fill-opacity:1;fill-rule:nonzero;stroke:none"
               d="m 0,0 c 0.001,5.113 1.334,10.056 3.729,14.411 2.597,4.721 6.444,8.75 11.249,11.531 5.308,3.072 7.121,9.865 4.048,15.172 -3.07,5.307 -9.86,7.123 -15.172,4.05 -4.189,-2.425 -7.955,-5.403 -11.248,-8.797 -1.315,-1.354 -2.553,-2.775 -3.71,-4.258 0.003,-0.003 0.005,-0.006 0.008,-0.01 C -18.044,23.242 -22.208,12.104 -22.208,0 v -0.003 c 0,-16.513 -13.435,-29.947 -29.946,-29.947 -11.273,0 -21.107,6.262 -26.216,15.487 -2.09,-8.15 -5.91,-15.611 -11.061,-21.961 9.474,-9.698 22.679,-15.734 37.277,-15.734 28.757,0 52.154,23.396 52.154,52.155" />
          </g>
        </g>
      </g>
      <g
         transform="translate(-233.50536,-245.62413)"
         id="g1220">
        <g
           clip-path="url(#clipPath1226)"
           id="g1222">
          <g
             transform="translate(589.18871,834.8472)"
             id="g1228">
            <path
               inkscape:connector-curvature="0"
               id="path1230"
               style="fill:#5b4d9e;fill-opacity:1;fill-rule:nonzero;stroke:none"
               d="M 0,0 C -2.184,0 -3.954,1.771 -3.954,3.955 V 43.21 c 0,2.184 1.77,3.955 3.954,3.955 2.184,0 3.955,-1.771 3.955,-3.955 V 3.955 C 3.955,1.771 2.184,0 0,0" />
          </g>
        </g>
      </g>
      <g
         transform="translate(-233.50536,-245.62413)"
         id="g1232">
        <g
           clip-path="url(#clipPath1238)"
           id="g1234">
          <g
             transform="translate(574.9612,845.2173)"
             id="g1240">
            <path
               inkscape:connector-curvature="0"
               id="path1242"
               style="fill:#5b4d9e;fill-opacity:1;fill-rule:nonzero;stroke:none"
               d="M 0,0 C -2.184,0 -3.955,1.771 -3.955,3.955 V 22.47 c 0,2.183 1.771,3.955 3.955,3.955 2.184,0 3.955,-1.772 3.955,-3.955 V 3.955 C 3.955,1.771 2.184,0 0,0" />
          </g>
        </g>
      </g>
      <g
         transform="translate(-233.50534,-245.62413)"
         id="g1244">
        <g
           clip-path="url(#clipPath1250)"
           id="g1246">
          <g
             transform="translate(604.46609,845.2173)"
             id="g1252">
            <path
               inkscape:connector-curvature="0"
               id="path1254"
               style="fill:#5b4d9e;fill-opacity:1;fill-rule:nonzero;stroke:none"
               d="M 0,0 C -2.185,0 -3.955,1.771 -3.955,3.955 V 22.47 c 0,2.183 1.77,3.955 3.955,3.955 2.184,0 3.954,-1.772 3.954,-3.955 V 3.955 C 3.954,1.771 2.184,0 0,0" />
          </g>
        </g>
      </g>
      <g
         transform="translate(-233.50536,-245.62415)"
         id="g1256">
        <g
           clip-path="url(#clipPath1262)"
           id="g1258">
          <g
             transform="translate(470.6203,744.46831)"
             id="g1264">
            <path
               inkscape:connector-curvature="0"
               id="path1266"
               style="fill:#5b4d9e;fill-opacity:1;fill-rule:nonzero;stroke:none"
               d="m 0,0 c 0,-2.194 -1.957,-4.032 -4.329,-4.032 -2.254,0 -4.33,1.897 -4.33,4.032 v 33.392 c 0.059,2.135 2.076,4.033 4.33,4.033 2.372,0 4.329,-1.838 4.329,-4.033 z" />
          </g>
        </g>
      </g>
      <g
         transform="translate(-233.50537,-245.62413)"
         id="g1268">
        <g
           clip-path="url(#clipPath1274)"
           id="g1270">
          <g
             transform="translate(495.2951,753.8394)"
             id="g1276">
            <path
               inkscape:connector-curvature="0"
               id="path1278"
               style="fill:#5b4d9e;fill-opacity:1;fill-rule:nonzero;stroke:none"
               d="m 0,0 c 2.313,0.89 4.508,-0.355 5.338,-2.076 0.891,-1.838 2.907,-3.855 6.584,-3.855 3.5,0 5.932,1.66 5.99,4.33 0.059,1.838 -0.771,3.44 -4.923,4.626 L 8.066,4.39 C -0.948,7.177 -2.49,12.336 -2.49,16.014 c 0,7.295 6.227,12.217 14.055,12.217 5.874,0 10.262,-2.549 12.457,-6.82 1.007,-1.957 0.177,-3.855 -1.306,-4.804 -2.135,-1.364 -4.032,-0.771 -5.456,1.008 -1.72,2.195 -3.974,2.847 -5.813,2.847 -3.024,0 -5.279,-1.779 -5.279,-4.211 0,-1.067 0.416,-3.024 4.39,-4.151 l 4.864,-1.424 C 25.326,7.829 26.749,2.254 26.631,-1.661 26.512,-9.786 19.157,-13.642 11.922,-13.642 c -7.235,0 -12.455,3.5 -14.235,8.779 C -2.965,-2.787 -2.017,-0.771 0,0" />
          </g>
        </g>
      </g>
      <g
         transform="translate(-233.50536,-245.62413)"
         id="g1280">
        <g
           clip-path="url(#clipPath1286)"
           id="g1282">
          <g
             transform="translate(559.0569,740.1978)"
             id="g1288">
            <path
               inkscape:connector-curvature="0"
               id="path1290"
               style="fill:#5b4d9e;fill-opacity:1;fill-rule:nonzero;stroke:none"
               d="m 0,0 c -8.422,0 -15.895,5.932 -15.895,15.184 v 22.478 c 0.059,2.136 2.076,4.033 4.33,4.033 2.372,0 4.33,-1.838 4.33,-4.033 V 15.184 c 0,-4.211 3.558,-6.999 7.235,-6.999 3.559,0 7.117,2.788 7.117,6.999 v 22.478 c 0,2.195 1.958,4.033 4.33,4.033 2.254,0 4.271,-1.897 4.329,-4.033 V 15.184 C 15.776,5.932 8.304,0 -0.118,0 Z" />
          </g>
        </g>
      </g>
      <g
         transform="translate(-233.50536,-245.62415)"
         id="g1292">
        <g
           clip-path="url(#clipPath1298)"
           id="g1294">
          <g
             transform="translate(659.7141,748.32381)"
             id="g1300">
            <path
               inkscape:connector-curvature="0"
               id="path1302"
               style="fill:#5b4d9e;fill-opacity:1;fill-rule:nonzero;stroke:none"
               d="m 0,0 h 11.803 c 1.956,0 3.557,-1.721 3.557,-3.796 0,-1.958 -1.66,-3.737 -3.557,-3.796 H -5.221 c -2.194,0 -3.439,1.66 -3.439,3.677 v 33.451 c 0.058,2.136 2.076,4.033 4.33,4.033 2.372,0 4.33,-1.838 4.33,-4.033 z" />
          </g>
        </g>
      </g>
      <g
         transform="translate(-233.50536,-245.62413)"
         id="g1304">
        <g
           clip-path="url(#clipPath1310)"
           id="g1306">
          <g
             transform="translate(630.47,746.0699)"
             id="g1312">
            <path
               inkscape:connector-curvature="0"
               id="path1314"
               style="fill:#5b4d9e;fill-opacity:1;fill-rule:nonzero;stroke:none"
               d="m 0,0 -11.803,31.79 c -0.948,2.491 -2.846,4.033 -5.871,4.033 h -0.355 c -3.026,0 -4.924,-1.542 -5.872,-4.033 L -35.704,0 c -0.712,-2.017 0.475,-4.686 2.609,-5.397 2.196,-0.712 4.686,0.237 5.457,2.253 l 9.786,29.24 9.787,-29.24 C -7.294,-5.16 -4.804,-6.109 -2.609,-5.397 -0.474,-4.686 0.713,-2.017 0,0" />
          </g>
        </g>
      </g>
      <g
         transform="translate(-233.50537,-245.62415)"
         id="g1316">
        <g
           clip-path="url(#clipPath1322)"
           id="g1318">
          <g
             transform="translate(405.132,776.1412)"
             id="g1324">
            <path
               inkscape:connector-curvature="0"
               id="path1326"
               style="fill:#5b4d9e;fill-opacity:1;fill-rule:nonzero;stroke:none"
               d="m 0,0 11.804,-31.791 c 0.948,-2.49 2.845,-4.032 5.871,-4.032 h 0.355 c 3.026,0 4.924,1.542 5.872,4.032 L 35.705,0 C 36.417,2.017 35.23,4.686 33.095,5.397 30.9,6.109 28.41,5.16 27.639,3.144 L 17.853,-26.097 8.066,3.144 C 7.295,5.16 4.805,6.109 2.61,5.397 0.475,4.686 -0.712,2.017 0,0" />
          </g>
        </g>
      </g>
      <g
         transform="translate(-233.50534,-245.62413)"
         id="g1328">
        <g
           clip-path="url(#clipPath1334)"
           id="g1330">
          <g
             transform="translate(429.61839,730.1851)"
             id="g1336">
            <path
               inkscape:connector-curvature="0"
               id="path1338"
               style="fill:#ffffff;fill-opacity:1;fill-rule:nonzero;stroke:none"
               d="M 0,0 -10.178,30.71 -7.044,31.748 3.135,1.039 Z" />
          </g>
        </g>
      </g>
      <g
         transform="translate(-233.50534,-245.62413)"
         id="g1340">
        <g
           clip-path="url(#clipPath1346)"
           id="g1342">
          <g
             transform="translate(615.18089,754.15289)"
             id="g1348">
            <path
               inkscape:connector-curvature="0"
               id="path1350"
               style="fill:#ffffff;fill-opacity:1;fill-rule:nonzero;stroke:none"
               d="M 0,0 -10.179,30.709 -7.044,31.748 3.135,1.039 Z" />
          </g>
        </g>
      </g>
    </g>
  </g>
</svg>
