<?xml version="1.0" encoding="UTF-8" standalone="no"?>
<svg
   xmlns:dc="http://purl.org/dc/elements/1.1/"
   xmlns:cc="http://creativecommons.org/ns#"
   xmlns:rdf="http://www.w3.org/1999/02/22-rdf-syntax-ns#"
   xmlns:svg="http://www.w3.org/2000/svg"
   xmlns="http://www.w3.org/2000/svg"
   xmlns:sodipodi="http://sodipodi.sourceforge.net/DTD/sodipodi-0.dtd"
   xmlns:inkscape="http://www.inkscape.org/namespaces/inkscape"
   viewBox="0 0 407.62 150.64"
   version="1.1"
   id="svg88"
   sodipodi:docname="SBOL-Logo-NoText.svg"
   inkscape:version="1.0.2-2 (e86c870879, 2021-01-15)">
  <metadata
     id="metadata92">
    <rdf:RDF>
      <cc:Work
         rdf:about="">
        <dc:format>image/svg+xml</dc:format>
        <dc:type
           rdf:resource="http://purl.org/dc/dcmitype/StillImage" />
      </cc:Work>
    </rdf:RDF>
  </metadata>
  <sodipodi:namedview
     pagecolor="#ffffff"
     bordercolor="#666666"
     borderopacity="1"
     objecttolerance="10"
     gridtolerance="10"
     guidetolerance="10"
     inkscape:pageopacity="0"
     inkscape:pageshadow="2"
     inkscape:window-width="1920"
     inkscape:window-height="963"
     id="namedview90"
     showgrid="false"
     inkscape:zoom="1.9914592"
     inkscape:cx="315.26476"
     inkscape:cy="231.02537"
     inkscape:window-x="3824"
     inkscape:window-y="-16"
     inkscape:window-maximized="1"
     inkscape:current-layer="Layer_2"
     inkscape:document-rotation="0" />
  <defs
     id="defs4">
    <style
       id="style2">.cls-1{fill:#232323;}.cls-2{fill:#98c255;}.cls-3{fill:none;}.cls-4{fill:#fff;}</style>
  </defs>
  <g
     id="Layer_2"
     data-name="Layer 2">
    <g
       id="g885"
       transform="translate(0,20.23)"
       inkscape:export-xdpi="500"
       inkscape:export-ydpi="500">
      <path
         class="cls-1"
         d="m 6.61,74.35 a 11.11,11.11 0 0 1 14,5.45 c 2.39,4.83 7.65,10.13 17.31,10.13 9.19,0 15.58,-4.36 15.73,-11.37 0.16,-4.83 -2,-9 -12.93,-12.15 L 27.8,62.82 C 4.12,55.5 0.07,42 0.07,32.29 0.07,13.13 16.42,0.2 37,0.2 c 15.41,0 26.93,6.7 32.7,17.92 a 9.43,9.43 0 0 1 -3.43,12.61 c -5.61,3.59 -10.59,2 -14.33,-2.64 A 19,19 0 0 0 36.68,20.61 c -7.95,0 -13.87,4.67 -13.87,11.06 0,2.8 1.09,7.94 11.53,10.9 l 12.77,3.74 c 26,7.48 29.75,22.12 29.44,32.4 -0.31,21.34 -19.63,31.47 -38.63,31.47 -19,0 -32.71,-9.18 -37.38,-23.05 A 10,10 0 0 1 6.61,74.35 Z"
         id="path6"
         inkscape:export-xdpi="500"
         inkscape:export-ydpi="500" />
      <path
         class="cls-1"
         d="m 101.83,108.78 c -5.77,0 -9,-4.52 -9,-9.66 v -88 c 0.16,-5.3 3.27,-9.66 9,-9.66 h 34 c 19.31,0 31.77,11.53 31.77,29.91 0,7 -3.58,15.89 -14.64,20.09 14.14,3.54 20.21,15.73 20.21,24.45 0,17.76 -12.93,32.87 -34.27,32.87 z M 133.6,44.29 c 5.92,0 10,-5 10,-11.37 0,-6.7 -3.42,-11.37 -10.12,-11.37 h -17.79 v 22.74 z m -17.91,18.07 v 26.32 h 22 c 7.64,0 11.53,-7 11.53,-13.39 0,-6.08 -3.89,-12.93 -12,-12.93 z"
         id="path8"
         inkscape:export-xdpi="500"
         inkscape:export-ydpi="500" />
      <path
         class="cls-1"
         d="m 367.28,88.84 h 31 c 5.14,0 9.34,4.52 9.34,10 0,5.14 -4.36,9.81 -9.34,10 h -44.71 c -5.76,0 -9,-4.37 -9,-9.66 V 11.26 c 0.12,-5.6 5.43,-10.59 11.34,-10.59 6.23,0 11.37,4.83 11.37,10.59 z"
         id="path10"
         inkscape:export-xdpi="500"
         inkscape:export-ydpi="500" />
      <path
         class="cls-2"
         d="M 326.56,82 A 31.52,31.52 0 0 1 314.74,69.89 60.58,60.58 0 0 1 303.06,93 54.78,54.78 0 0 0 314.87,102.24 11.686677,11.686677 0 0 0 326.56,82 Z"
         id="path68"
         inkscape:export-xdpi="500"
         inkscape:export-ydpi="500" />
      <polygon
         class="cls-3"
         points="310.82,54.79 310.82,54.78 310.82,54.79 "
         id="polygon70"
         inkscape:export-xdpi="500"
         inkscape:export-ydpi="500" />
      <path
         class="cls-2"
         d="M 197.2,7.34 A 11.67,11.67 0 0 0 185.51,27.53 31.54,31.54 0 0 1 197.33,39.65 60.58,60.58 0 0 1 209,16.58 54.78,54.78 0 0 0 197.2,7.34 Z"
         id="path72"
         inkscape:export-xdpi="500"
         inkscape:export-ydpi="500" />
      <polygon
         class="cls-4"
         points=""
         id="polygon74"
         inkscape:export-xdpi="500"
         inkscape:export-ydpi="500" />
      <path
         class="cls-2"
         d="M 256,0 A 54.85,54.85 0 0 0 201.21,54.79 31.63,31.63 0 0 1 185.51,82 11.67,11.67 0 1 0 197.2,102.2 54.78,54.78 0 0 0 209,93 a 55.88,55.88 0 0 0 4,-4.41 54.52,54.52 0 0 0 11.61,-33.72 31.46,31.46 0 0 1 59,-15.22 60.45,60.45 0 0 1 11.66,-23 A 54.61,54.61 0 0 0 256,0 Z"
         id="path76"
         inkscape:export-xdpi="500"
         inkscape:export-ydpi="500" />
      <path
         class="cls-2"
         d="m 310.82,54.79 a 31.7,31.7 0 0 1 15.74,-27.26 11.67,11.67 0 1 0 -11.69,-20.19 54.78,54.78 0 0 0 -11.81,9.24 53.1,53.1 0 0 0 -3.9,4.47 v 0 a 54.43,54.43 0 0 0 -11.68,33.72 v 0 A 31.45,31.45 0 0 1 228.5,70 60.53,60.53 0 0 1 216.88,93.07 54.74,54.74 0 0 0 310.82,54.81"
         id="path78"
         inkscape:export-xdpi="500"
         inkscape:export-ydpi="500" />
      <path
         class="cls-2"
         d="m 255.48,80 a 4.15,4.15 0 0 1 -4.15,-4.15 V 34.57 a 4.16,4.16 0 0 1 8.31,0 V 75.81 A 4.15,4.15 0 0 1 255.48,80 Z"
         id="path80"
         inkscape:export-xdpi="500"
         inkscape:export-ydpi="500" />
      <path
         class="cls-2"
         d="m 240.54,69.07 a 4.15,4.15 0 0 1 -4.16,-4.15 V 45.47 a 4.16,4.16 0 1 1 8.31,0 v 19.45 a 4.15,4.15 0 0 1 -4.15,4.15 z"
         id="path82"
         inkscape:export-xdpi="500"
         inkscape:export-ydpi="500" />
      <path
         class="cls-2"
         d="m 271.53,69.07 a 4.15,4.15 0 0 1 -4.15,-4.15 V 45.47 a 4.16,4.16 0 1 1 8.31,0 v 19.45 a 4.16,4.16 0 0 1 -4.16,4.15 z"
         id="path84"
         inkscape:export-xdpi="500"
         inkscape:export-ydpi="500" />
      <polygon
         class="cls-4"
         points=""
         id="polygon74-2"
         inkscape:export-xdpi="500"
         inkscape:export-ydpi="500"
         style="fill:#ffffff"
         transform="translate(-19.11736,301.72133)" />
    </g>
  </g>
</svg>
