<?xml version="1.0" encoding="utf-8"?>
<!-- Generator: Adobe Illustrator 24.0.3, SVG Export Plug-In . SVG Version: 6.00 Build 0)  -->
<svg version="1.1" id="Layer_1" xmlns="http://www.w3.org/2000/svg" xmlns:xlink="http://www.w3.org/1999/xlink" x="0px" y="0px"
	 viewBox="0 0 407.7 110.2" style="enable-background:new 0 0 407.7 110.2;" xml:space="preserve">
<style type="text/css">
	.st0{fill:#232323;}
	.st1{fill:#98C255;}
	.st2{fill:none;}
	.st3{fill:#FFFFFF;}
</style>
<path class="st0" d="M6.7,74.3c5.4-2.1,11.5,0.3,14,5.4C23,84.6,28.3,89.9,38,89.9c9.2,0,15.6-4.4,15.7-11.4c0.2-4.8-2-9-12.9-12.2
	l-12.9-3.6C4.2,55.5,0.1,42,0.1,32.3C0.1,13.1,16.5,0.2,37,0.2c15.4,0,26.9,6.7,32.7,17.9c2.4,4.4,0.9,10-3.4,12.6
	c-5.6,3.6-10.6,2-14.3-2.6c-3.6-4.8-9.3-7.5-15.3-7.5c-8,0-13.9,4.7-13.9,11.1c0,2.8,1.1,7.9,11.5,10.9l12.8,3.7
	c26,7.5,29.8,22.1,29.4,32.4C76.3,100.1,57,110.2,38,110.2S5.3,101,0.6,87.1C-1.3,81.9,1.4,76.2,6.7,74.3
	C6.6,74.4,6.7,74.4,6.7,74.3z"/>
<path class="st0" d="M101.9,108.8c-5.8,0-9-4.5-9-9.7v-88c0.2-5.3,3.3-9.7,9-9.7h34c19.3,0,31.8,11.5,31.8,29.9
	c0,7-3.6,15.9-14.6,20.1c14.1,3.5,20.2,15.7,20.2,24.5c0,17.8-12.9,32.9-34.3,32.9H101.9z M133.6,44.3c5.9,0,10-5,10-11.4
	c0-6.7-3.4-11.4-10.1-11.4h-17.8v22.7H133.6z M115.7,62.4v26.3h22c7.6,0,11.5-7,11.5-13.4c0-6.1-3.9-12.9-12-12.9H115.7z"/>
<path class="st0" d="M367.3,88.8h31c5.1,0,9.3,4.5,9.3,10c0,5.1-4.4,9.8-9.3,10h-44.7c-5.8,0-9-4.4-9-9.7V11.3
	C344.7,5.7,350,0.7,356,0.7c6.2,0,11.4,4.8,11.4,10.6V88.8z"/>
<path class="st1" d="M326.6,82c-5-2.9-9.1-7.1-11.8-12.1c-2.2,8.5-6.2,16.3-11.7,23.1c3.5,3.6,7.5,6.7,11.8,9.2
	c5.6,3.2,12.7,1.3,16-4.3C334.1,92.4,332.2,85.2,326.6,82L326.6,82z"/>
<polygon class="st2" points="310.9,54.8 310.9,54.8 310.9,54.8 310.9,54.8 "/>
<path class="st1" d="M197.2,7.3c-5.7-3.1-12.8-1-15.8,4.7c-2.9,5.4-1.1,12.2,4.1,15.5c5,2.9,9.1,7.1,11.8,12.1
	c2.2-8.4,6.2-16.3,11.7-23.1C205.6,13,201.6,9.9,197.2,7.3z"/>
<polygon class="st3" points="287.5,54.8 287.5,54.8 287.5,54.8 287.5,54.8 "/>
<path class="st1" d="M256,0c-30.2,0-54.8,24.5-54.8,54.8c0,11.2-6,21.6-15.7,27.2c-5.6,3.2-7.6,10.3-4.4,15.9
	c3.2,5.6,10.3,7.6,15.9,4.4c0.1,0,0.1-0.1,0.2-0.1c4.3-2.5,8.3-5.6,11.8-9.2c1.4-1.4,2.7-2.9,4-4.4c7.5-9.6,11.6-21.5,11.6-33.7
	c0-17.4,14.1-31.5,31.4-31.5c11.5,0,22,6.2,27.6,16.3c2.2-8.4,6.2-16.3,11.7-23C285,6,270.8,0,256,0z"/>
<path class="st1" d="M310.9,54.8c0-11.2,6-21.6,15.7-27.3c5.7-3.1,7.8-10.1,4.7-15.8C328.3,6,321.2,3.9,315.5,7
	c-0.2,0.1-0.4,0.2-0.6,0.3c-4.3,2.5-8.3,5.6-11.8,9.2c-1.4,1.4-2.7,2.9-3.9,4.5l0,0c-7.6,9.6-11.7,21.5-11.7,33.7l0,0
	c0,17.4-14.1,31.5-31.4,31.5c-11.5,0-22-6.2-27.6-16.2c-2.2,8.4-6.1,16.3-11.6,23.1c21.1,21.6,55.8,22.1,77.4,1
	C304.9,83.7,310.9,69.6,310.9,54.8"/>
<path class="st1" d="M255.5,80c-2.3,0-4.1-1.9-4.1-4.2V34.6c0.1-2.3,2.1-4.1,4.4-4c2.1,0.1,3.8,1.8,4,4v41.2
	C259.7,78.1,257.9,80,255.5,80C255.6,80,255.5,80,255.5,80z"/>
<path class="st1" d="M240.6,69.1c-2.3,0-4.2-1.8-4.2-4.1c0,0,0,0,0,0V45.5c-0.1-2.3,1.7-4.2,4-4.4c2.3-0.1,4.2,1.7,4.4,4
	c0,0.1,0,0.3,0,0.4v19.4C244.7,67.2,242.9,69.1,240.6,69.1z"/>
<path class="st1" d="M271.6,69.1c-2.3,0-4.1-1.9-4.1-4.2V45.5c-0.1-2.3,1.7-4.2,4-4.4c2.3-0.1,4.2,1.7,4.4,4c0,0.1,0,0.3,0,0.4v19.4
	C275.7,67.2,273.9,69.1,271.6,69.1z"/>
</svg>
