<svg xmlns="http://www.w3.org/2000/svg" viewBox="0 0 498 261"><defs><style>.b27825d9-c522-4566-9bae-22ae4612e477{fill:#8cc63f;}</style></defs><title>sbol</title><g id="f7a27f7e-a01f-47e9-a141-44e37ff155db" data-name="Layer 5"><path class="b27825d9-c522-4566-9bae-22ae4612e477" d="M476.81,32.08a193.93,193.93,0,0,0-24.22-.82,198.86,198.86,0,0,0-51,8.38,176.88,176.88,0,0,0-22.09,9.12,185.87,185.87,0,0,0-27.07,16.43q.58,2.59,1.24,5.16l1.09,4.06c.42,1.49.85,3,1.31,4.45.87-.46,1.75-.9,2.63-1.35l-1.06-3.93q2.92-2.51,5.95-4.87l1.51,5.65,2.77-1.27-1.7-6.34q3-2.23,6.08-4.32l2.11,7.84,2.8-1.13-2.27-8.46q3.07-2,6.22-3.83l2.63,9.79c.94-.33,1.89-.67,2.84-1l-2.78-10.33q3.14-1.74,6.35-3.34l3.1,11.51c1-.3,1.91-.58,2.87-.86l-3.23-12q3.19-1.51,6.48-2.89l3.51,13.07,2.91-.72-3.62-13.49c2.17-.86,4.36-1.69,6.58-2.47l3.88,14.44,3-.57-4-14.83q3.31-1.09,6.7-2l4.21,15.68,3-.45-4.32-16.05c2.25-.59,4.52-1.13,6.81-1.64l4.52,16.82q1.51-.16,3-.3L430.89,38c2.29-.46,4.59-.89,6.91-1.26l4.79,17.82,3.06-.17-4.86-18.11q3.48-.49,7-.86l5,18.74c1,0,2.06,0,3.1,0l-5.11-19q3.54-.32,7.11-.49l5.27,19.59,3.14.12L461,34.56q3.6-.12,7.22-.1l5.47,20.34c1.06.07,2.12.15,3.17.25L471.36,34.5c1.77,0,3.54.08,5.32.17Z"/><path class="b27825d9-c522-4566-9bae-22ae4612e477" d="M483.36,223.26v19.31c-2.33.21-4.66.37-7,.46V223c-1,.12-2,.22-3,.33v19.84q-3.5.08-7,0V223.87l-3,.15v19c-2.33-.09-4.67-.23-7-.42v-18.4h-.88l-2.12,0v18.12q-3.6-.37-7.18-.91l.09-17.44c-1-.06-2-.11-3-.18l-.09,17.14c-2.28-.38-4.56-.81-6.82-1.3V223.18l-3-.36V239c-2.35-.55-4.68-1.16-7-1.81V221.79l-1.74-.29c-.42-.07-.84-.16-1.26-.24v15l-1.85-.57q-2.58-.83-5.15-1.76V219.84l-3-.71v13.7c-2.35-.9-4.69-1.86-7-2.87V217.28c-1-.29-2-.58-3-.89V228.6c-2.36-1.09-4.69-2.25-7-3.46V214.08l-3-1.09v10.54q-3.56-2-7-4.1v-9.22c-1-.42-2-.87-3-1.31v8.62c-2.38-1.55-4.71-3.15-7-4.82v-7.1c-1-.51-2-1-3-1.53v6.38q-3.58-2.76-7-5.69v-4.55c-.88-.51-1.74-1-2.61-1.57-.16,1.79-.29,3.57-.39,5.36v4l-.2.23c-.08,2.26-.11,4.51-.11,6.77l.31.26v.27a192.47,192.47,0,0,0,53.26,24,199.44,199.44,0,0,0,69.74,6.35V223.66l-.5-.23Z"/><path class="b27825d9-c522-4566-9bae-22ae4612e477" d="M15.34,246.69a395.2,395.2,0,0,0,93.37,5.19C158,248.74,207,236.34,254.54,215L251,206.88c-4.18,1.85-8.39,3.61-12.61,5.34V193.66c-1,.48-2,.94-3,1.4v18.38q-3.5,1.4-7,2.73V198.28l-3,1.32v17.72c-2.33.88-4.66,1.72-7,2.56V202.63c-1,.43-2,.84-3,1.26V221c-2.33.82-4.66,1.6-7,2.37V206.74l-3,1.18v16.41q-3.5,1.14-7,2.22v-16l-3,1.12v15.75c-2.33.7-4.66,1.4-7,2.06V214.21l-3,1v15.09c-2.33.65-4.66,1.3-7,1.91V217.58l-3,1V233c-2.33.59-4.66,1.18-7,1.74v-14l-3,.91v13.8c-2.33.53-4.66,1.06-7,1.57V223.64l-3,.85v13.14q-3.5.74-7,1.41V226.33l-3,.78v12.5q-3.5.64-7,1.25V228.79c-1,.24-2,.49-3,.72v11.85q-3.5.57-7,1.09V231l-3,.65v11.2c-2.33.33-4.66.63-7,.93V233.07l-3,.58v10.54q-3.49.42-7,.78V234.88c-.81.14-1.61.3-2.42.43l-.58.09v9.89l-1.84.19-5.16.45v-9.45l-3,.46v9.23c-2.33.17-4.66.34-7,.48v-8.77l-3,.39v8.55q-3.49.19-7,.33v-8.09l-3,.33v7.88c-2.33.08-4.66.13-7,.18V240l-3,.27v7.19q-3.49,0-7,0v-6.72c-1,.07-2,.16-3,.22v6.48c-2.33,0-4.67,0-7-.11v-6c-1,0-2,.11-3,.15v5.78c-2.33-.07-4.67-.16-7-.26v-5.3c-1,0-2,.07-3,.09v5.06c-2.33-.12-4.67-.25-7-.41v-4.57l-3,0v4.34c-2.33-.17-4.67-.36-7-.57v-3.81l-3,0v4.64Z"/><path class="b27825d9-c522-4566-9bae-22ae4612e477" d="M40.42,34l1.13-12.43q3.56-.33,7.08-.59L47.48,33.63l3-.11,1.16-12.78c2.37-.16,4.73-.31,7.07-.43l-1.18,13c1,0,2,0,3-.06l1.19-13.11c2.36-.11,4.71-.19,7.05-.26L67.6,33.21h3l1.22-13.4q3.54-.09,7-.1l-1.23,13.6,3,.09,1.25-13.69q3.53,0,7,.1L87.64,33.69l3,.14L91.9,19.89q3.52.11,7,.28L97.62,34.28l3,.25,1.29-14.18q3.52.21,7,.48l-1.3,14.33c1,.1,2,.19,3,.3l1.31-14.38q3.51.32,7,.71l-1.32,14.5,3,.41,1.32-14.56c2.34.29,4.65.59,7,.93l-1.34,14.67q1.5.23,3,.48l1.34-14.69c2.33.37,4.63.76,6.92,1.19l-1.34,14.76c1,.19,2,.4,3,.61l1.35-14.81q3.48.67,6.9,1.44l-1.35,14.85,3,.69,1.34-14.83q3.48.83,6.88,1.74L157,44c1,.26,2,.51,2.94.78L161.27,30q3.47,1,6.85,2.06l-1.34,14.77c1,.3,2,.59,2.93.9L171,33q3.45,1.15,6.81,2.41L176.53,50c1,.34,1.94.71,2.91,1.06l1.32-14.56q3.44,1.33,6.78,2.79l-1.31,14.38c1,.39,1.94.81,2.91,1.21l1.3-14.32q3.42,1.55,6.73,3.23l-1.27,14c1,.44,1.93.87,2.89,1.33l1.26-13.89q3.4,1.79,6.69,3.69l-1.23,13.54c1,.5,1.92,1,2.88,1.52L209.6,50.7Q213,52.76,216.24,55l-1.17,12.85c1,.57,1.91,1.14,2.86,1.72l1.15-12.65c2.25,1.58,4.43,3.23,6.58,4.92l-1.08,12c.95.63,1.9,1.25,2.84,1.9l1.05-11.61q3.34,2.73,6.52,5.63l-1,10.75c1,.71,1.88,1.45,2.82,2.18l.93-10.3c.52.5,1.06,1,1.57,1.49,1.65,1.64,3.27,3.34,4.87,5.06L243.37,88c.94.81,1.87,1.63,2.79,2.45l.77-8.53L247,82c.26-3.66.44-7.33.5-11-.31-.34-.61-.68-.93-1C218.93,40.36,182.85,22.08,139.36,15.6c-30.21-4.5-64-3.36-100.59,3.35L37.39,34.18Z"/></g><g id="a19decde-eee3-427d-9442-6751cfa5c2f7" data-name="Layer 3"><circle cx="307.52" cy="140.84" r="68.4"/><rect class="b27825d9-c522-4566-9bae-22ae4612e477" x="255.17" y="137.4" width="104.71" height="7.64"/><path class="b27825d9-c522-4566-9bae-22ae4612e477" d="M279.62,144.28a3.82,3.82,0,0,1-3.82-3.82V116.77a3.82,3.82,0,1,1,7.64,0v23.69A3.82,3.82,0,0,1,279.62,144.28Z"/><line class="b27825d9-c522-4566-9bae-22ae4612e477" x1="301.79" y1="116.77" x2="291.32" y2="127.27"/><path class="b27825d9-c522-4566-9bae-22ae4612e477" d="M291.32,131.09a3.82,3.82,0,0,1-2.7-6.52l10.46-10.5a3.82,3.82,0,1,1,5.41,5.4L294,130A3.83,3.83,0,0,1,291.32,131.09Z"/><polyline class="b27825d9-c522-4566-9bae-22ae4612e477" points="311.72 129.76 311.72 153.45 335.42 153.45 335.48 153.44 347.65 141.27 347.65 141.22 335.48 129.05 335.42 129 311.72 129"/><path class="b27825d9-c522-4566-9bae-22ae4612e477" d="M335.42,157.28h-23.7a3.83,3.83,0,0,1-3.82-3.83V129.76c0-.13,0-.26,0-.38s0-.25,0-.38a3.82,3.82,0,0,1,3.82-3.82h23.7a3.8,3.8,0,0,1,2.23.72l.07,0a3.5,3.5,0,0,1,.46.39l12.18,12.17a3.84,3.84,0,0,1,1.11,2.81,3.89,3.89,0,0,1-1.12,2.65l-12.17,12.18a3.82,3.82,0,0,1-2.08,1.06A3.92,3.92,0,0,1,335.42,157.28Zm-19.88-7.65h18.35l8.39-8.39-8.43-8.42H315.54Z"/><path class="b27825d9-c522-4566-9bae-22ae4612e477" d="M307.14,198.55a58.09,58.09,0,1,1,58.08-58.09A58.16,58.16,0,0,1,307.14,198.55Zm0-109.3a51.21,51.21,0,1,0,51.2,51.21A51.27,51.27,0,0,0,307.14,89.25Z"/><path class="b27825d9-c522-4566-9bae-22ae4612e477" d="M301.79,120.59H279.62a3.82,3.82,0,1,1,0-7.64h22.17a3.82,3.82,0,0,1,0,7.64Z"/><line class="b27825d9-c522-4566-9bae-22ae4612e477" x1="291.49" y1="106.43" x2="301.79" y2="116.77"/><path class="b27825d9-c522-4566-9bae-22ae4612e477" d="M301.79,120.59a3.86,3.86,0,0,1-2.71-1.12l-10.3-10.34a3.83,3.83,0,0,1,5.42-5.4l10.29,10.34a3.82,3.82,0,0,1-2.7,6.52Z"/></g><g id="b3111738-ea2c-4d84-8ee1-cc3b4fddb8b4" data-name="Layer 2"><path d="M76.62,158.43a27.84,27.84,0,0,0,1.89,10.83,19.19,19.19,0,0,0,5.28,7.35,21.34,21.34,0,0,0,7.77,4.18,32.92,32.92,0,0,0,9.53,1.31,26.82,26.82,0,0,0,9.46-1.47,18.42,18.42,0,0,0,6.35-3.79,13.66,13.66,0,0,0,3.51-5.34,18,18,0,0,0,1.09-6.11c0-4.23-.84-7.35-2.5-9.36a14.49,14.49,0,0,0-5.48-4.26,104.53,104.53,0,0,0-12-4.1q-6.82-1.93-16.83-5a33.9,33.9,0,0,1-10.34-4.87A26.21,26.21,0,0,1,67.84,131a24.94,24.94,0,0,1-3.45-7.89,35.76,35.76,0,0,1-1-8.51,32.13,32.13,0,0,1,3-14.47,29.76,29.76,0,0,1,8-10.14,33.53,33.53,0,0,1,11.35-6,43.89,43.89,0,0,1,12.84-1.93,44.7,44.7,0,0,1,14.26,2.24,33.65,33.65,0,0,1,11.76,6.74,32.32,32.32,0,0,1,8,11.06,36.74,36.74,0,0,1,3,15.24h-16.9q-.67-10.66-6.35-15.08T98,97.92a27.93,27.93,0,0,0-6.08.69,17.94,17.94,0,0,0-5.68,2.32A13.43,13.43,0,0,0,82,105.34a13.21,13.21,0,0,0-1.69,7q0,5.88,3.18,9.21a19.83,19.83,0,0,0,8.31,5c.36.1,1.78.54,4.26,1.31s5.25,1.63,8.31,2.55,6.06,1.84,9,2.71,5,1.53,6.28,1.94a26.85,26.85,0,0,1,8.25,4.64,28.47,28.47,0,0,1,5.88,6.73,29.66,29.66,0,0,1,3.51,8.13,33.53,33.53,0,0,1,1.15,8.66,35,35,0,0,1-3.31,15.87,31,31,0,0,1-8.72,10.75,35.51,35.51,0,0,1-12.3,6.12A52.13,52.13,0,0,1,100,197.89a50.94,50.94,0,0,1-15.54-2.32,34.76,34.76,0,0,1-12.7-7.12,34.31,34.31,0,0,1-8.65-12.3,45.87,45.87,0,0,1-3.38-17.72Z"/><path d="M149.07,84.76H196q13,0,20.81,6.81t7.84,20.58A27.28,27.28,0,0,1,221,126.47a23.9,23.9,0,0,1-10.2,9.21V136a21,21,0,0,1,13.51,9.67q4.59,7.5,4.6,18.8a35.74,35.74,0,0,1-2,12.15,24.75,24.75,0,0,1-6.35,9.75,30.82,30.82,0,0,1-11.09,6.5,48.11,48.11,0,0,1-16.08,2.4H149.07ZM166,131h27.58a13.94,13.94,0,0,0,10.13-3.94q4.07-3.95,4.06-11.38,0-8.35-3.65-11.76t-10.54-3.4H166Zm0,48.44h29.87q7.71,0,12-4.56T212.05,162q0-8.2-4.25-12.62t-12-4.41H166Z"/><path d="M391.36,83.59h16.9v93.78h49.06v16.71h-66Z"/></g></svg>