<svg xmlns="http://www.w3.org/2000/svg" viewBox="0 0 498 299"><defs><style>.b30e2b3f-5f1d-4b82-b8e5-04d60f7b0447{fill:#8cc63f;}</style></defs><title>sbol</title><g id="f37ee78d-780a-4114-9f44-b12e935ff45c" data-name="Layer 5"><path class="b30e2b3f-5f1d-4b82-b8e5-04d60f7b0447" d="M476.81,32.08a193.93,193.93,0,0,0-24.22-.82,198.86,198.86,0,0,0-51,8.38,176.88,176.88,0,0,0-22.09,9.12,185.87,185.87,0,0,0-27.07,16.43q.58,2.59,1.24,5.16l1.09,4.06c.42,1.49.85,3,1.31,4.45.87-.46,1.75-.9,2.63-1.35l-1.06-3.93q2.92-2.51,5.95-4.87l1.51,5.65,2.77-1.27-1.7-6.34q3-2.23,6.08-4.32l2.11,7.84,2.8-1.13-2.27-8.46q3.07-2,6.22-3.83l2.63,9.79c.94-.33,1.89-.67,2.84-1l-2.78-10.33q3.14-1.74,6.35-3.34l3.1,11.51c1-.3,1.91-.58,2.87-.86l-3.23-12q3.19-1.51,6.48-2.89l3.51,13.07,2.91-.72-3.62-13.49c2.17-.86,4.36-1.69,6.58-2.47l3.88,14.44,3-.57-4-14.83q3.31-1.09,6.7-2l4.21,15.68,3-.45-4.32-16.05c2.25-.59,4.52-1.13,6.81-1.64l4.52,16.82q1.51-.16,3-.3L430.89,38c2.29-.46,4.59-.89,6.91-1.26l4.79,17.82,3.06-.17-4.86-18.11q3.48-.49,7-.86l5,18.74c1,0,2.06,0,3.1,0l-5.11-19q3.54-.32,7.11-.49l5.27,19.59,3.14.12L461,34.56q3.6-.12,7.22-.1l5.47,20.34c1.06.07,2.12.15,3.17.25L471.36,34.5c1.77,0,3.54.08,5.32.17Z"/><path class="b30e2b3f-5f1d-4b82-b8e5-04d60f7b0447" d="M483.36,223.26v19.31c-2.33.21-4.66.37-7,.46V223c-1,.12-2,.22-3,.33v19.84q-3.5.08-7,0V223.87l-3,.15v19c-2.33-.09-4.67-.23-7-.42v-18.4h-.88l-2.12,0v18.12q-3.6-.37-7.18-.91l.09-17.44c-1-.06-2-.11-3-.18l-.09,17.14c-2.28-.38-4.56-.81-6.82-1.3V223.18l-3-.36V239c-2.35-.55-4.68-1.16-7-1.81V221.79l-1.74-.29c-.42-.07-.84-.16-1.26-.24v15l-1.85-.57q-2.58-.83-5.15-1.76V219.84l-3-.71v13.7c-2.35-.9-4.69-1.86-7-2.87V217.28c-1-.29-2-.58-3-.89V228.6c-2.36-1.09-4.69-2.25-7-3.46V214.08l-3-1.09v10.54q-3.56-2-7-4.1v-9.22c-1-.42-2-.87-3-1.31v8.62c-2.38-1.55-4.71-3.15-7-4.82v-7.1c-1-.51-2-1-3-1.53v6.38q-3.58-2.76-7-5.69v-4.55c-.88-.51-1.74-1-2.61-1.57-.16,1.79-.29,3.57-.39,5.36v4l-.2.23c-.08,2.26-.11,4.51-.11,6.77l.31.26v.27a192.47,192.47,0,0,0,53.26,24,199.44,199.44,0,0,0,69.74,6.35V223.66l-.5-.23Z"/><path class="b30e2b3f-5f1d-4b82-b8e5-04d60f7b0447" d="M15.34,246.69a395.2,395.2,0,0,0,93.37,5.19C158,248.74,207,236.34,254.54,215L251,206.88c-4.18,1.85-8.39,3.61-12.61,5.34V193.66c-1,.48-2,.94-3,1.4v18.38q-3.5,1.4-7,2.73V198.28l-3,1.32v17.72c-2.33.88-4.66,1.72-7,2.56V202.63c-1,.43-2,.84-3,1.26V221c-2.33.82-4.66,1.6-7,2.37V206.74l-3,1.18v16.41q-3.5,1.14-7,2.22v-16l-3,1.12v15.75c-2.33.7-4.66,1.4-7,2.06V214.21l-3,1v15.09c-2.33.65-4.66,1.3-7,1.91V217.58l-3,1V233c-2.33.59-4.66,1.18-7,1.74v-14l-3,.91v13.8c-2.33.53-4.66,1.06-7,1.57V223.64l-3,.85v13.14q-3.5.74-7,1.41V226.33l-3,.78v12.5q-3.5.64-7,1.25V228.79c-1,.24-2,.49-3,.72v11.85q-3.5.57-7,1.09V231l-3,.65v11.2c-2.33.33-4.66.63-7,.93V233.07l-3,.58v10.54q-3.49.42-7,.78V234.88c-.81.14-1.61.3-2.42.43l-.58.09v9.89l-1.84.19-5.16.45v-9.45l-3,.46v9.23c-2.33.17-4.66.34-7,.48v-8.77l-3,.39v8.55q-3.49.19-7,.33v-8.09l-3,.33v7.88c-2.33.08-4.66.13-7,.18V240l-3,.27v7.19q-3.49,0-7,0v-6.72c-1,.07-2,.16-3,.22v6.48c-2.33,0-4.67,0-7-.11v-6c-1,0-2,.11-3,.15v5.78c-2.33-.07-4.67-.16-7-.26v-5.3c-1,0-2,.07-3,.09v5.06c-2.33-.12-4.67-.25-7-.41v-4.57l-3,0v4.34c-2.33-.17-4.67-.36-7-.57v-3.81l-3,0v4.64Z"/><path class="b30e2b3f-5f1d-4b82-b8e5-04d60f7b0447" d="M40.42,34l1.13-12.43q3.56-.33,7.08-.59L47.48,33.63l3-.11,1.16-12.78c2.37-.16,4.73-.31,7.07-.43l-1.18,13c1,0,2,0,3-.06l1.19-13.11c2.36-.11,4.71-.19,7.05-.26L67.6,33.21h3l1.22-13.4q3.54-.09,7-.1l-1.23,13.6,3,.09,1.25-13.69q3.53,0,7,.1L87.64,33.69l3,.14L91.9,19.89q3.52.11,7,.28L97.62,34.28l3,.25,1.29-14.18q3.52.21,7,.48l-1.3,14.33c1,.1,2,.19,3,.3l1.31-14.38q3.51.32,7,.71l-1.32,14.5,3,.41,1.32-14.56c2.34.29,4.65.59,7,.93l-1.34,14.67q1.5.23,3,.48l1.34-14.69c2.33.37,4.63.76,6.92,1.19l-1.34,14.76c1,.19,2,.4,3,.61l1.35-14.81q3.48.67,6.9,1.44l-1.35,14.85,3,.69,1.34-14.83q3.48.83,6.88,1.74L157,44c1,.26,2,.51,2.94.78L161.27,30q3.47,1,6.85,2.06l-1.34,14.77c1,.3,2,.59,2.93.9L171,33q3.45,1.15,6.81,2.41L176.53,50c1,.34,1.94.71,2.91,1.06l1.32-14.56q3.44,1.33,6.78,2.79l-1.31,14.38c1,.39,1.94.81,2.91,1.21l1.3-14.32q3.42,1.55,6.73,3.23l-1.27,14c1,.44,1.93.87,2.89,1.33l1.26-13.89q3.4,1.79,6.69,3.69l-1.23,13.54c1,.5,1.92,1,2.88,1.52L209.6,50.7Q213,52.76,216.24,55l-1.17,12.85c1,.57,1.91,1.14,2.86,1.72l1.15-12.65c2.25,1.58,4.43,3.23,6.58,4.92l-1.08,12c.95.63,1.9,1.25,2.84,1.9l1.05-11.61q3.34,2.73,6.52,5.63l-1,10.75c1,.71,1.88,1.45,2.82,2.18l.93-10.3c.52.5,1.06,1,1.57,1.49,1.65,1.64,3.27,3.34,4.87,5.06L243.37,88c.94.81,1.87,1.63,2.79,2.45l.77-8.53L247,82c.26-3.66.44-7.33.5-11-.31-.34-.61-.68-.93-1C218.93,40.36,182.85,22.08,139.36,15.6c-30.21-4.5-64-3.36-100.59,3.35L37.39,34.18Z"/></g><g id="aa9eb60f-a9d5-424f-bf8c-4dec8645ca7d" data-name="Layer 3"><circle cx="307.52" cy="140.84" r="68.4"/><rect class="b30e2b3f-5f1d-4b82-b8e5-04d60f7b0447" x="255.17" y="137.4" width="104.71" height="7.64"/><path class="b30e2b3f-5f1d-4b82-b8e5-04d60f7b0447" d="M279.62,144.28a3.82,3.82,0,0,1-3.82-3.82V116.77a3.82,3.82,0,1,1,7.64,0v23.69A3.82,3.82,0,0,1,279.62,144.28Z"/><line class="b30e2b3f-5f1d-4b82-b8e5-04d60f7b0447" x1="301.79" y1="116.77" x2="291.32" y2="127.27"/><path class="b30e2b3f-5f1d-4b82-b8e5-04d60f7b0447" d="M291.32,131.09a3.82,3.82,0,0,1-2.7-6.52l10.46-10.5a3.82,3.82,0,1,1,5.41,5.4L294,130A3.83,3.83,0,0,1,291.32,131.09Z"/><polyline class="b30e2b3f-5f1d-4b82-b8e5-04d60f7b0447" points="311.72 129.76 311.72 153.45 335.42 153.45 335.48 153.44 347.65 141.27 347.65 141.22 335.48 129.05 335.42 129 311.72 129"/><path class="b30e2b3f-5f1d-4b82-b8e5-04d60f7b0447" d="M335.42,157.28h-23.7a3.83,3.83,0,0,1-3.82-3.83V129.76c0-.13,0-.26,0-.38s0-.25,0-.38a3.82,3.82,0,0,1,3.82-3.82h23.7a3.8,3.8,0,0,1,2.23.72l.07,0a3.5,3.5,0,0,1,.46.39l12.18,12.17a3.84,3.84,0,0,1,1.11,2.81,3.89,3.89,0,0,1-1.12,2.65l-12.17,12.18a3.82,3.82,0,0,1-2.08,1.06A3.92,3.92,0,0,1,335.42,157.28Zm-19.88-7.65h18.35l8.39-8.39-8.43-8.42H315.54Z"/><path class="b30e2b3f-5f1d-4b82-b8e5-04d60f7b0447" d="M307.14,198.55a58.09,58.09,0,1,1,58.08-58.09A58.16,58.16,0,0,1,307.14,198.55Zm0-109.3a51.21,51.21,0,1,0,51.2,51.21A51.27,51.27,0,0,0,307.14,89.25Z"/><path class="b30e2b3f-5f1d-4b82-b8e5-04d60f7b0447" d="M301.79,120.59H279.62a3.82,3.82,0,1,1,0-7.64h22.17a3.82,3.82,0,0,1,0,7.64Z"/><line class="b30e2b3f-5f1d-4b82-b8e5-04d60f7b0447" x1="291.49" y1="106.43" x2="301.79" y2="116.77"/><path class="b30e2b3f-5f1d-4b82-b8e5-04d60f7b0447" d="M301.79,120.59a3.86,3.86,0,0,1-2.71-1.12l-10.3-10.34a3.83,3.83,0,0,1,5.42-5.4l10.29,10.34a3.82,3.82,0,0,1-2.7,6.52Z"/><path d="M56.08,273.53v-4h4.51v4h1.77v3H60.59V283a1,1,0,0,0,.26.82,1.17,1.17,0,0,0,.81.23h.7v3l-1.25,0c-.42,0-.82,0-1.2,0a14.49,14.49,0,0,1-1.75-.09,2.39,2.39,0,0,1-1.19-.43,2,2,0,0,1-.67-1,6.06,6.06,0,0,1-.22-1.82v-7.2h-1.5v-3Z"/><path d="M68.59,269.2V275h0a3.18,3.18,0,0,1,1.44-1.46,4.11,4.11,0,0,1,1.69-.39,4.93,4.93,0,0,1,1.34.18,2.65,2.65,0,0,1,1.12.6A2.82,2.82,0,0,1,75,275.1a4.73,4.73,0,0,1,.29,1.76v10.21H70.79v-8.94a2.25,2.25,0,0,0-.25-1.22.94.94,0,0,0-.85-.38,1,1,0,0,0-.85.38,2.34,2.34,0,0,0-.25,1.22v8.94h-4.5V269.2Z"/><path d="M82,282.84a2.07,2.07,0,0,0,.37,1.46,1.22,1.22,0,0,0,.85.37,1.09,1.09,0,0,0,.94-.49,3.53,3.53,0,0,0,.34-1.87h4a5.35,5.35,0,0,1-1.28,3.77,5.42,5.42,0,0,1-4,1.26A8.85,8.85,0,0,1,80.5,287a3.72,3.72,0,0,1-1.78-1.2,5.14,5.14,0,0,1-1-2.19,16.09,16.09,0,0,1-.29-3.28,14.12,14.12,0,0,1,.33-3.3,5.41,5.41,0,0,1,1-2.2,4.05,4.05,0,0,1,1.79-1.24,7.82,7.82,0,0,1,2.62-.39,7.6,7.6,0,0,1,2.36.33,3.79,3.79,0,0,1,1.7,1.08,4.9,4.9,0,0,1,1,2,12.11,12.11,0,0,1,.34,3.09v1.37H82Zm2.21-6.41a1,1,0,0,0-1-.5,1,1,0,0,0-1,.5A3.52,3.52,0,0,0,82,278v.6h2.47V278A3.52,3.52,0,0,0,84.19,276.43Z"/><path d="M101.52,283.61a1.34,1.34,0,0,0,.25.58,1.06,1.06,0,0,0,1,.48,1.45,1.45,0,0,0,.91-.31,1,1,0,0,0,.39-.85,1,1,0,0,0-.49-.92,5.46,5.46,0,0,0-1.21-.58l-1.57-.52a7,7,0,0,1-1.56-.75A3.88,3.88,0,0,1,98,279.47a3.81,3.81,0,0,1-.49-2.06,4.27,4.27,0,0,1,.32-1.66,3.69,3.69,0,0,1,1-1.34,4.49,4.49,0,0,1,1.68-.9,7.71,7.71,0,0,1,2.39-.33q5.07,0,5.07,4.25H104a1.67,1.67,0,0,0-.31-1.18,1.21,1.21,0,0,0-.89-.32,1.23,1.23,0,0,0-.82.28,1,1,0,0,0,.16,1.64,5.79,5.79,0,0,0,1.21.51l1.57.47a6.32,6.32,0,0,1,1.56.72,3.81,3.81,0,0,1,1.21,1.25,3.9,3.9,0,0,1,.49,2.09,4.24,4.24,0,0,1-1.44,3.25,4.46,4.46,0,0,1-1.7.9,8.09,8.09,0,0,1-2.29.3,6,6,0,0,1-4.06-1.12,4.31,4.31,0,0,1-1.24-3.36h4A3.52,3.52,0,0,0,101.52,283.61Z"/><path d="M111.17,288.22l.5,0a1.9,1.9,0,0,0,.72-.12,1.82,1.82,0,0,0,.46-.29,1.1,1.1,0,0,0,.25-.34.71.71,0,0,0,.07-.27,1.76,1.76,0,0,0-.06-.4c0-.17-.09-.35-.14-.53l-3.55-12.76h4.63l1.38,9.13h0l1.3-9.13h4.5l-3.63,13.91a9.35,9.35,0,0,1-.69,1.94,3.62,3.62,0,0,1-.92,1.21,3.11,3.11,0,0,1-1.24.63,6.49,6.49,0,0,1-1.6.17c-.49,0-.93,0-1.34,0s-.8,0-1.19-.08v-3.15A4.71,4.71,0,0,0,111.17,288.22Z"/><path d="M127,273.53v1.65h0a3.27,3.27,0,0,1,3.28-2,6.09,6.09,0,0,1,1.39.16,2.65,2.65,0,0,1,1.11.59,2.87,2.87,0,0,1,.75,1.13,4.79,4.79,0,0,1,.28,1.8v10.21h-4.5v-8.94a2.34,2.34,0,0,0-.25-1.22,1,1,0,0,0-.86-.38,1,1,0,0,0-.85.38,2.34,2.34,0,0,0-.25,1.22v8.94h-4.5V273.53Z"/><path d="M137.12,273.53v-4h4.5v4h1.78v3h-1.78V283a1.09,1.09,0,0,0,.26.82,1.19,1.19,0,0,0,.81.23h.71v3q-.63,0-1.26,0c-.41,0-.81,0-1.2,0a14.61,14.61,0,0,1-1.75-.09,2.39,2.39,0,0,1-1.19-.43,2,2,0,0,1-.67-1,6.45,6.45,0,0,1-.21-1.82v-7.2h-1.51v-3Z"/><path d="M149.62,269.2V275h0a3.22,3.22,0,0,1,1.44-1.46,4.11,4.11,0,0,1,1.69-.39,4.87,4.87,0,0,1,1.34.18,2.69,2.69,0,0,1,1.13.6,2.91,2.91,0,0,1,.77,1.14,4.73,4.73,0,0,1,.29,1.76v10.21h-4.5v-8.94a2.34,2.34,0,0,0-.25-1.22,1,1,0,0,0-.85-.38.94.94,0,0,0-.85.38,2.23,2.23,0,0,0-.26,1.22v8.94h-4.5V269.2Z"/><path d="M163,282.84a2.07,2.07,0,0,0,.37,1.46,1.22,1.22,0,0,0,.85.37,1.08,1.08,0,0,0,.94-.49,3.53,3.53,0,0,0,.34-1.87h4.05a5.39,5.39,0,0,1-1.27,3.77,5.45,5.45,0,0,1-4,1.26,8.94,8.94,0,0,1-2.73-.36,3.69,3.69,0,0,1-1.77-1.2,5.14,5.14,0,0,1-1-2.19,16.16,16.16,0,0,1-.28-3.28,14.17,14.17,0,0,1,.32-3.3,5.42,5.42,0,0,1,1-2.2,3.94,3.94,0,0,1,1.79-1.24,7.72,7.72,0,0,1,2.61-.39,7.6,7.6,0,0,1,2.36.33,3.83,3.83,0,0,1,1.71,1.08,4.89,4.89,0,0,1,1,2,11.68,11.68,0,0,1,.34,3.09v1.37H163Zm2.21-6.41a1.2,1.2,0,0,0-1.95,0A3.67,3.67,0,0,0,163,278v.6h2.48V278A3.5,3.5,0,0,0,165.22,276.43Z"/><path d="M172.37,273.53v-4h4.5v4h1.77v3h-1.77V283a1.09,1.09,0,0,0,.26.82,1.19,1.19,0,0,0,.81.23h.7v3l-1.25,0c-.41,0-.81,0-1.2,0a14.61,14.61,0,0,1-1.75-.09,2.39,2.39,0,0,1-1.19-.43,2,2,0,0,1-.67-1,6.45,6.45,0,0,1-.21-1.82v-7.2h-1.51v-3Z"/><path d="M185,269.2v3.36h-4.5V269.2Zm0,4.33v13.54h-4.5V273.53Z"/><path d="M194.26,277.5a3.15,3.15,0,0,0-.23-.84,1,1,0,0,0-1-.58,1.12,1.12,0,0,0-.64.19,1.3,1.3,0,0,0-.41.68,6.06,6.06,0,0,0-.21,1.3c-.05.54-.07,1.23-.07,2.06s0,1.52.07,2.07a5.74,5.74,0,0,0,.21,1.28,1.31,1.31,0,0,0,.41.67,1.12,1.12,0,0,0,.64.18,1.08,1.08,0,0,0,1-.47,3.18,3.18,0,0,0,.34-1.75v-.88h4a11.87,11.87,0,0,1-.27,2.73,4.2,4.2,0,0,1-.93,1.85,5.49,5.49,0,0,1-4.15,1.35,11.68,11.68,0,0,1-2.38-.22,3.66,3.66,0,0,1-1.84-1,4.91,4.91,0,0,1-1.18-2.07,11.85,11.85,0,0,1-.43-3.54,12.67,12.67,0,0,1,.48-3.86,5.21,5.21,0,0,1,1.28-2.22,4,4,0,0,1,1.92-1,10.45,10.45,0,0,1,2.37-.25,6.58,6.58,0,0,1,2.49.41,3.86,3.86,0,0,1,1.58,1.16,4.4,4.4,0,0,1,.83,1.77,10.89,10.89,0,0,1,.23,2.31h-4A9.67,9.67,0,0,0,194.26,277.5Z"/><path d="M212.27,269.2v5.86h0a2.45,2.45,0,0,1,1.11-1.47,3.61,3.61,0,0,1,1.72-.41,4.27,4.27,0,0,1,1.75.34,3,3,0,0,1,1.3,1.12,6.2,6.2,0,0,1,.81,2.11,15.61,15.61,0,0,1,.29,3.26,13,13,0,0,1-.9,5.56,3.23,3.23,0,0,1-3.15,1.77,3.37,3.37,0,0,1-1.93-.5,3.28,3.28,0,0,1-1.15-1.63h0v1.86h-4.35V269.2Zm0,12.91a4.67,4.67,0,0,0,.19,1.17,1.17,1.17,0,0,0,.38.61,1.06,1.06,0,0,0,.63.17,1.09,1.09,0,0,0,.65-.17,1.12,1.12,0,0,0,.39-.61,5.81,5.81,0,0,0,.19-1.17c0-.48.05-1.08.05-1.8s0-1.34-.05-1.82a5.69,5.69,0,0,0-.19-1.17,1.12,1.12,0,0,0-.39-.61,1.09,1.09,0,0,0-.65-.18,1.07,1.07,0,0,0-.63.18,1.17,1.17,0,0,0-.38.61,4.59,4.59,0,0,0-.19,1.17c0,.48,0,1.09,0,1.82S212.29,281.63,212.32,282.11Z"/><path d="M226.05,269.2v3.36h-4.5V269.2Zm0,4.33v13.54h-4.5V273.53Z"/><path d="M239.63,282.91a6.12,6.12,0,0,1-.79,2.27,4.23,4.23,0,0,1-1.74,1.57,6.55,6.55,0,0,1-3,.59,7.49,7.49,0,0,1-3.13-.54,3.69,3.69,0,0,1-1.72-1.5,5.64,5.64,0,0,1-.74-2.25,21.76,21.76,0,0,1-.17-2.76,18.75,18.75,0,0,1,.19-2.61,6.18,6.18,0,0,1,.79-2.27,4.4,4.4,0,0,1,1.74-1.62,6.53,6.53,0,0,1,3-.61,7.31,7.31,0,0,1,3.13.56,4,4,0,0,1,1.72,1.54,5.79,5.79,0,0,1,.74,2.27,21.82,21.82,0,0,1,.16,2.76A18.51,18.51,0,0,1,239.63,282.91Zm-6.77-.51a5.46,5.46,0,0,0,.2,1.29,1.25,1.25,0,0,0,.39.65,1,1,0,0,0,.61.17,1,1,0,0,0,.62-.17,1.13,1.13,0,0,0,.39-.65,6.13,6.13,0,0,0,.19-1.29c0-.54.05-1.24.05-2.09s0-1.55-.05-2.1a6.13,6.13,0,0,0-.19-1.3,1.13,1.13,0,0,0-.39-.65,1,1,0,0,0-.62-.18,1,1,0,0,0-.61.18,1.25,1.25,0,0,0-.39.65,5.47,5.47,0,0,0-.2,1.3c0,.55-.05,1.25-.05,2.1S232.82,281.86,232.86,282.4Z"/><path d="M246.57,269.2v17.87h-4.51V269.2Z"/><path d="M260.14,282.91a6.12,6.12,0,0,1-.79,2.27,4.23,4.23,0,0,1-1.74,1.57,6.55,6.55,0,0,1-3,.59,7.44,7.44,0,0,1-3.12-.54,3.71,3.71,0,0,1-1.73-1.5,5.8,5.8,0,0,1-.74-2.25,21.82,21.82,0,0,1-.16-2.76,17.34,17.34,0,0,1,.19-2.61,6,6,0,0,1,.78-2.27,4.47,4.47,0,0,1,1.74-1.62,6.56,6.56,0,0,1,3-.61,7.31,7.31,0,0,1,3.13.56,4,4,0,0,1,1.73,1.54,6,6,0,0,1,.74,2.27,23.86,23.86,0,0,1,.16,2.76A17.11,17.11,0,0,1,260.14,282.91Zm-6.77-.51a6,6,0,0,0,.2,1.29,1.25,1.25,0,0,0,.39.65,1,1,0,0,0,.61.17,1.06,1.06,0,0,0,.63-.17,1.19,1.19,0,0,0,.39-.65,6.22,6.22,0,0,0,.18-1.29c0-.54,0-1.24,0-2.09s0-1.55,0-2.1a6.23,6.23,0,0,0-.18-1.3,1.19,1.19,0,0,0-.39-.65,1.07,1.07,0,0,0-.63-.18,1,1,0,0,0-.61.18,1.25,1.25,0,0,0-.39.65,6,6,0,0,0-.2,1.3c0,.55-.05,1.25-.05,2.1S253.34,281.86,253.37,282.4Z"/><path d="M273.64,273.53v13.31a5.25,5.25,0,0,1-.44,2.25,3.75,3.75,0,0,1-1.2,1.48,4.94,4.94,0,0,1-1.79.79,9.79,9.79,0,0,1-2.23.23,11.82,11.82,0,0,1-2-.16,4.72,4.72,0,0,1-1.67-.59,3,3,0,0,1-1.12-1.16,4,4,0,0,1-.44-1.89h4a1,1,0,0,0,.3.78,1.2,1.2,0,0,0,.83.27,2.18,2.18,0,0,0,.5,0,.92.92,0,0,0,.44-.22,1.43,1.43,0,0,0,.31-.5,2.71,2.71,0,0,0,.12-.9v-2.5h0a2.74,2.74,0,0,1-1.27,1.6,4,4,0,0,1-1.78.42,3.94,3.94,0,0,1-1.37-.25,2.85,2.85,0,0,1-1.28-1,5.73,5.73,0,0,1-.94-2,13.35,13.35,0,0,1-.36-3.42,15,15,0,0,1,.29-3.26,6,6,0,0,1,.82-2.11,3.07,3.07,0,0,1,1.32-1.12,4.24,4.24,0,0,1,1.75-.34,3.39,3.39,0,0,1,1.77.5,2.92,2.92,0,0,1,1.2,1.73h.05v-1.88Zm-6.82,8.14a4,4,0,0,0,.25,1,1,1,0,0,0,.4.5,1.13,1.13,0,0,0,.56.13,1.08,1.08,0,0,0,.54-.13,1,1,0,0,0,.4-.5,3.63,3.63,0,0,0,.24-1,21.29,21.29,0,0,0,0-3.45,3.72,3.72,0,0,0-.24-1,1,1,0,0,0-.4-.51,1.09,1.09,0,0,0-.54-.14,1.13,1.13,0,0,0-.56.14,1,1,0,0,0-.4.51,4.06,4.06,0,0,0-.25,1,16.58,16.58,0,0,0,0,3.45Z"/><path d="M277.14,288.22l.5,0a1.85,1.85,0,0,0,.71-.12,1.89,1.89,0,0,0,.47-.29,1.1,1.1,0,0,0,.25-.34.71.71,0,0,0,.07-.27,1.76,1.76,0,0,0-.06-.4c0-.17-.09-.35-.14-.53l-3.55-12.76H280l1.37,9.13h.05l1.3-9.13h4.51l-3.63,13.91a9.35,9.35,0,0,1-.69,1.94,3.9,3.9,0,0,1-.92,1.21,3.17,3.17,0,0,1-1.24.63,6.49,6.49,0,0,1-1.6.17c-.49,0-.93,0-1.34,0s-.81,0-1.19-.08v-3.15A4.33,4.33,0,0,0,277.14,288.22Z"/><path d="M306.85,282.91a6.12,6.12,0,0,1-.79,2.27,4.23,4.23,0,0,1-1.74,1.57,6.55,6.55,0,0,1-3,.59,7.49,7.49,0,0,1-3.13-.54,3.73,3.73,0,0,1-1.72-1.5,5.64,5.64,0,0,1-.74-2.25,21.82,21.82,0,0,1-.16-2.76,17.34,17.34,0,0,1,.19-2.61,6,6,0,0,1,.78-2.27,4.4,4.4,0,0,1,1.74-1.62,6.53,6.53,0,0,1,3-.61,7.31,7.31,0,0,1,3.13.56,4,4,0,0,1,1.73,1.54,6,6,0,0,1,.73,2.27,21.76,21.76,0,0,1,.17,2.76A18.5,18.5,0,0,1,306.85,282.91Zm-6.77-.51a5.46,5.46,0,0,0,.2,1.29,1.25,1.25,0,0,0,.39.65,1,1,0,0,0,.61.17,1.06,1.06,0,0,0,.63-.17,1.18,1.18,0,0,0,.38-.65,5.53,5.53,0,0,0,.19-1.29c0-.54,0-1.24,0-2.09s0-1.55,0-2.1a5.55,5.55,0,0,0-.19-1.3,1.18,1.18,0,0,0-.38-.65,1.07,1.07,0,0,0-.63-.18,1,1,0,0,0-.61.18,1.25,1.25,0,0,0-.39.65,5.47,5.47,0,0,0-.2,1.3c0,.55-.05,1.25-.05,2.1S300.05,281.86,300.08,282.4Z"/><path d="M313.64,273.53v1.85h.05a3,3,0,0,1,3.08-2.2,3.22,3.22,0,0,1,3.15,1.83,13.18,13.18,0,0,1,.9,5.58,14.79,14.79,0,0,1-.3,3.25,6.15,6.15,0,0,1-.84,2.09,3,3,0,0,1-1.3,1.1,4.45,4.45,0,0,1-1.71.31A3.84,3.84,0,0,1,315,287a2.31,2.31,0,0,1-1.11-1.43h0v5.85h-4.5V273.53Zm.2,8.58a5.17,5.17,0,0,0,.19,1.17,1.12,1.12,0,0,0,.39.61,1,1,0,0,0,.62.17,1.07,1.07,0,0,0,.65-.17,1.12,1.12,0,0,0,.39-.61,5.81,5.81,0,0,0,.19-1.17c0-.48.05-1.09.05-1.82s0-1.34-.05-1.82a5.7,5.7,0,0,0-.19-1.15,1.12,1.12,0,0,0-.39-.61,1.07,1.07,0,0,0-.65-.18,1,1,0,0,0-.62.18,1.12,1.12,0,0,0-.39.61,5.07,5.07,0,0,0-.19,1.15c0,.48,0,1.08,0,1.82S313.81,281.63,313.84,282.11Z"/><path d="M327.1,282.84a2.06,2.06,0,0,0,.38,1.46,1.2,1.2,0,0,0,.85.37,1.07,1.07,0,0,0,.93-.49,3.53,3.53,0,0,0,.34-1.87h4.06a5.39,5.39,0,0,1-1.28,3.77,5.45,5.45,0,0,1-4,1.26,8.94,8.94,0,0,1-2.73-.36,3.69,3.69,0,0,1-1.77-1.2,5.27,5.27,0,0,1-1-2.19,16.16,16.16,0,0,1-.28-3.28,14.74,14.74,0,0,1,.32-3.3,5.42,5.42,0,0,1,1-2.2,3.94,3.94,0,0,1,1.79-1.24,8.81,8.81,0,0,1,5-.06,3.85,3.85,0,0,1,1.7,1.08,4.77,4.77,0,0,1,1,2,11.68,11.68,0,0,1,.34,3.09v1.37H327.1Zm2.21-6.41a1.2,1.2,0,0,0-1.95,0,3.67,3.67,0,0,0-.26,1.58v.6h2.48V278A3.5,3.5,0,0,0,329.31,276.43Z"/><path d="M340.16,273.53v1.65h0a3.26,3.26,0,0,1,3.28-2,6.09,6.09,0,0,1,1.39.16,2.71,2.71,0,0,1,1.11.59,2.87,2.87,0,0,1,.75,1.13,5,5,0,0,1,.27,1.8v10.21h-4.5v-8.94a2.25,2.25,0,0,0-.25-1.22,1.14,1.14,0,0,0-1.7,0,2.25,2.25,0,0,0-.25,1.22v8.94h-4.5V273.53Z"/><path d="M361.45,269.2v17.87H357V269.2Z"/><path d="M370.51,286.34c0-.25-.07-.52-.1-.8h-.05a2.67,2.67,0,0,1-1.19,1.35,3.8,3.8,0,0,1-1.87.45,5.23,5.23,0,0,1-1.74-.26,2.82,2.82,0,0,1-1.16-.79,3.18,3.18,0,0,1-.65-1.25,6.86,6.86,0,0,1,0-3.25,3.19,3.19,0,0,1,.61-1.22,3.49,3.49,0,0,1,1.15-.87,8.21,8.21,0,0,1,1.8-.61l1.78-.43a2.06,2.06,0,0,0,1-.51,1.43,1.43,0,0,0,.3-1c0-.83-.39-1.25-1.16-1.25a1.15,1.15,0,0,0-.95.37,2.51,2.51,0,0,0-.32,1.43h-3.9a4.61,4.61,0,0,1,.52-2.36,4.12,4.12,0,0,1,1.3-1.38,4.86,4.86,0,0,1,1.68-.65,10.31,10.31,0,0,1,1.67-.16,11.24,11.24,0,0,1,2.17.19,4.39,4.39,0,0,1,1.7.67,3.2,3.2,0,0,1,1.1,1.33,5.15,5.15,0,0,1,.39,2.16v6.61c0,.63,0,1.19.07,1.68a3.53,3.53,0,0,0,.35,1.25h-4.35A3.68,3.68,0,0,1,370.51,286.34Zm-.43-2.5a3.37,3.37,0,0,0,.33-1.68v-1.62h-.05a.9.9,0,0,1-.62.33,3.94,3.94,0,0,0-.91.29,1.5,1.5,0,0,0-.73.67,2.51,2.51,0,0,0-.2,1.08,1.77,1.77,0,0,0,.3,1.08,1,1,0,0,0,.8.4A1.15,1.15,0,0,0,370.08,283.84Z"/><path d="M381.74,273.53v1.65h.05a3.26,3.26,0,0,1,3.28-2,6.09,6.09,0,0,1,1.39.16,2.71,2.71,0,0,1,1.11.59,2.87,2.87,0,0,1,.75,1.13,5,5,0,0,1,.27,1.8v10.21h-4.5v-8.94a2.25,2.25,0,0,0-.25-1.22,1.14,1.14,0,0,0-1.7,0,2.25,2.25,0,0,0-.25,1.22v8.94h-4.5V273.53Z"/><path d="M402.3,273.53v13.31a5.25,5.25,0,0,1-.43,2.25,3.92,3.92,0,0,1-1.2,1.48,4.94,4.94,0,0,1-1.79.79,9.85,9.85,0,0,1-2.23.23,11.93,11.93,0,0,1-2-.16,4.74,4.74,0,0,1-1.66-.59,3.07,3.07,0,0,1-1.13-1.16,4,4,0,0,1-.43-1.89h4.05a1,1,0,0,0,.3.78,1.18,1.18,0,0,0,.82.27,2.21,2.21,0,0,0,.51,0,.89.89,0,0,0,.43-.22,1.44,1.44,0,0,0,.32-.5,2.71,2.71,0,0,0,.12-.9v-2.5h-.05a2.71,2.71,0,0,1-1.28,1.6,3.91,3.91,0,0,1-1.77.42,4,4,0,0,1-1.38-.25,2.88,2.88,0,0,1-1.27-1,5.57,5.57,0,0,1-.94-2,13.35,13.35,0,0,1-.36-3.42,15.69,15.69,0,0,1,.28-3.26,6,6,0,0,1,.83-2.11,3.1,3.1,0,0,1,1.31-1.12,4.27,4.27,0,0,1,1.75-.34,3.4,3.4,0,0,1,1.78.5,2.92,2.92,0,0,1,1.2,1.73h.05v-1.88Zm-6.81,8.14a3.59,3.59,0,0,0,.25,1,.91.91,0,0,0,.4.5,1.23,1.23,0,0,0,1.1,0,1,1,0,0,0,.4-.5,3.63,3.63,0,0,0,.24-1,21.29,21.29,0,0,0,0-3.45,3.72,3.72,0,0,0-.24-1,1,1,0,0,0-.4-.51,1.15,1.15,0,0,0-1.1,0,1,1,0,0,0-.4.51,3.68,3.68,0,0,0-.25,1,16.58,16.58,0,0,0,0,3.45Z"/><path d="M409.46,273.53v8.93a2.26,2.26,0,0,0,.25,1.23,1.16,1.16,0,0,0,1.7,0,2.26,2.26,0,0,0,.25-1.23v-8.93h4.5v13.54h-4.35v-1.65h-.05a3.25,3.25,0,0,1-3.28,1.92,6.12,6.12,0,0,1-1.39-.14,2.42,2.42,0,0,1-1.11-.55,2.7,2.7,0,0,1-.75-1.12,5.11,5.11,0,0,1-.27-1.79V273.53Z"/><path d="M425.14,286.34c0-.25-.06-.52-.1-.8H425a2.65,2.65,0,0,1-1.18,1.35,3.83,3.83,0,0,1-1.87.45,5.23,5.23,0,0,1-1.74-.26,2.82,2.82,0,0,1-1.16-.79,3.18,3.18,0,0,1-.65-1.25,6.86,6.86,0,0,1,0-3.25,3.19,3.19,0,0,1,.61-1.22,3.49,3.49,0,0,1,1.15-.87,7.86,7.86,0,0,1,1.8-.61l1.78-.43a2,2,0,0,0,1-.51,1.38,1.38,0,0,0,.3-1c0-.83-.38-1.25-1.15-1.25a1.15,1.15,0,0,0-.95.37,2.43,2.43,0,0,0-.32,1.43h-3.91a4.61,4.61,0,0,1,.53-2.36,4,4,0,0,1,1.3-1.38,4.86,4.86,0,0,1,1.68-.65,10.31,10.31,0,0,1,1.67-.16,11.24,11.24,0,0,1,2.17.19,4.46,4.46,0,0,1,1.7.67,3.28,3.28,0,0,1,1.1,1.33,5.15,5.15,0,0,1,.39,2.16v6.61c0,.63,0,1.19.07,1.68a3.53,3.53,0,0,0,.35,1.25h-4.35A4.58,4.58,0,0,1,425.14,286.34Zm-.42-2.5a3.38,3.38,0,0,0,.32-1.68v-1.62H425a.86.86,0,0,1-.61.33,3.94,3.94,0,0,0-.91.29,1.5,1.5,0,0,0-.73.67,2.51,2.51,0,0,0-.2,1.08,1.77,1.77,0,0,0,.3,1.08,1,1,0,0,0,.8.4A1.16,1.16,0,0,0,424.72,283.84Z"/><path d="M443.16,273.53v13.31a5.25,5.25,0,0,1-.44,2.25,3.75,3.75,0,0,1-1.2,1.48,4.94,4.94,0,0,1-1.79.79,9.79,9.79,0,0,1-2.23.23,11.82,11.82,0,0,1-2-.16,4.72,4.72,0,0,1-1.67-.59,3,3,0,0,1-1.12-1.16,4,4,0,0,1-.44-1.89h4.05a1,1,0,0,0,.3.78,1.2,1.2,0,0,0,.83.27,2.18,2.18,0,0,0,.5,0,.92.92,0,0,0,.44-.22,1.43,1.43,0,0,0,.31-.5,2.71,2.71,0,0,0,.12-.9v-2.5h-.05a2.7,2.7,0,0,1-1.27,1.6,4,4,0,0,1-1.78.42,3.94,3.94,0,0,1-1.37-.25,2.85,2.85,0,0,1-1.28-1,5.73,5.73,0,0,1-.94-2,13.35,13.35,0,0,1-.36-3.42,15.61,15.61,0,0,1,.29-3.26,6,6,0,0,1,.82-2.11,3.07,3.07,0,0,1,1.32-1.12,4.24,4.24,0,0,1,1.75-.34,3.39,3.39,0,0,1,1.77.5,2.92,2.92,0,0,1,1.2,1.73H439v-1.88Zm-6.82,8.14a4,4,0,0,0,.25,1,1,1,0,0,0,.4.5,1.13,1.13,0,0,0,.56.13,1.08,1.08,0,0,0,.54-.13,1,1,0,0,0,.4-.5,3.63,3.63,0,0,0,.24-1,21.29,21.29,0,0,0,0-3.45,3.72,3.72,0,0,0-.24-1,1,1,0,0,0-.4-.51,1.09,1.09,0,0,0-.54-.14,1.13,1.13,0,0,0-.56.14,1,1,0,0,0-.4.51,4.06,4.06,0,0,0-.25,1,16.58,16.58,0,0,0,0,3.45Z"/><path d="M449.91,282.84a2.06,2.06,0,0,0,.38,1.46,1.2,1.2,0,0,0,.85.37,1.1,1.1,0,0,0,.94-.49,3.64,3.64,0,0,0,.34-1.87h4.05a5.39,5.39,0,0,1-1.28,3.77,5.45,5.45,0,0,1-4,1.26,8.83,8.83,0,0,1-2.72-.36,3.67,3.67,0,0,1-1.78-1.2,5.14,5.14,0,0,1-1-2.19,15.41,15.41,0,0,1-.29-3.28,14.74,14.74,0,0,1,.32-3.3,5.42,5.42,0,0,1,1-2.2,4,4,0,0,1,1.79-1.24,8.81,8.81,0,0,1,5-.06,3.85,3.85,0,0,1,1.7,1.08,4.77,4.77,0,0,1,1,2,11.68,11.68,0,0,1,.34,3.09v1.37h-6.68Zm2.22-6.41a1,1,0,0,0-1-.5,1,1,0,0,0-1,.5,3.5,3.5,0,0,0-.27,1.58v.6h2.48V278A3.67,3.67,0,0,0,452.13,276.43Z"/></g><g id="f375031a-2077-4689-9320-6133c9840c3d" data-name="Layer 2"><path d="M76.62,158.43a27.84,27.84,0,0,0,1.89,10.83,19.19,19.19,0,0,0,5.28,7.35,21.34,21.34,0,0,0,7.77,4.18,32.92,32.92,0,0,0,9.53,1.31,26.82,26.82,0,0,0,9.46-1.47,18.26,18.26,0,0,0,6.35-3.79,13.66,13.66,0,0,0,3.51-5.34,18,18,0,0,0,1.09-6.11c0-4.23-.84-7.35-2.5-9.36a14.49,14.49,0,0,0-5.48-4.26,104.53,104.53,0,0,0-12-4.1q-6.82-1.93-16.83-5a33.9,33.9,0,0,1-10.34-4.87A26.21,26.21,0,0,1,67.84,131a24.94,24.94,0,0,1-3.45-7.89,35.7,35.7,0,0,1-1-8.51,32.13,32.13,0,0,1,3-14.47,29.76,29.76,0,0,1,8-10.14,33.7,33.7,0,0,1,11.35-6,44.22,44.22,0,0,1,12.84-1.93,44.7,44.7,0,0,1,14.26,2.24,33.65,33.65,0,0,1,11.76,6.74,32.32,32.32,0,0,1,8,11.06,36.75,36.75,0,0,1,3,15.25h-16.9q-.67-10.68-6.35-15.09T98,97.92a27.93,27.93,0,0,0-6.08.69,17.94,17.94,0,0,0-5.68,2.32A13.43,13.43,0,0,0,82,105.34a13.21,13.21,0,0,0-1.69,7q0,5.88,3.18,9.21a19.83,19.83,0,0,0,8.31,5c.36.1,1.78.54,4.26,1.31s5.25,1.63,8.31,2.56l9,2.7q4.4,1.32,6.28,1.94a26.85,26.85,0,0,1,8.25,4.64,28.47,28.47,0,0,1,5.88,6.73,29.66,29.66,0,0,1,3.51,8.13,33.53,33.53,0,0,1,1.15,8.66,35,35,0,0,1-3.31,15.87,31,31,0,0,1-8.72,10.75,35.51,35.51,0,0,1-12.3,6.12A52.13,52.13,0,0,1,100,197.89a50.94,50.94,0,0,1-15.54-2.32,34.76,34.76,0,0,1-12.7-7.12,34.31,34.31,0,0,1-8.65-12.3,45.87,45.87,0,0,1-3.38-17.72Z"/><path d="M149.07,84.76H196q13,0,20.81,6.81t7.84,20.58A27.28,27.28,0,0,1,221,126.47a23.9,23.9,0,0,1-10.2,9.21V136a21,21,0,0,1,13.51,9.67q4.59,7.5,4.6,18.8a35.74,35.74,0,0,1-2,12.15,24.75,24.75,0,0,1-6.35,9.75,30.82,30.82,0,0,1-11.09,6.5,48.11,48.11,0,0,1-16.08,2.4H149.07ZM166,131h27.58a13.94,13.94,0,0,0,10.13-3.94q4.07-3.95,4.06-11.38,0-8.35-3.65-11.76t-10.54-3.4H166Zm0,48.44h29.87q7.71,0,12-4.56T212.05,162q0-8.2-4.25-12.62t-12-4.41H166Z"/><path d="M391.36,83.59h16.9v93.78h49.06v16.71h-66Z"/></g></svg>