<svg xmlns="http://www.w3.org/2000/svg" viewBox="0 0 498 261"><defs><style>.bed75897-2dba-4852-9c76-3356d6de3324{fill:#d8d8d8;}.e4391353-c447-4bae-b006-7197d16cf2d0{fill:#8cc63f;}.fcb20691-d4b2-4e40-b9da-4233d00d1abb{fill:#fff;}</style></defs><title>sbol</title><g id="b47d61fa-4b62-4c0f-94a9-55290a3653e2" data-name="Layer 3"><path class="bed75897-2dba-4852-9c76-3356d6de3324" d="M474.18,32.1A192.25,192.25,0,0,0,450,31.28a199.13,199.13,0,0,0-51,8.37,179.24,179.24,0,0,0-22.1,9.13,185,185,0,0,0-27.07,16.43q.58,2.6,1.25,5.16l1.09,4c.41,1.5.85,3,1.3,4.46L356,77.53,355,73.59q2.91-2.49,5.94-4.86l1.52,5.65,2.76-1.27-1.7-6.34q3-2.23,6.09-4.32l2.11,7.84,2.8-1.14-2.28-8.45q3.07-2,6.22-3.83l2.63,9.79,2.84-1-2.77-10.33c2.08-1.17,4.2-2.27,6.35-3.34l3.09,11.51c1-.3,1.92-.58,2.88-.86l-3.23-12q3.19-1.52,6.47-2.89l3.51,13.07c1-.24,1.94-.49,2.92-.72l-3.63-13.49c2.17-.87,4.37-1.7,6.58-2.47L410,58.58c1-.2,2-.38,3-.57l-4-14.83c2.21-.73,4.45-1.41,6.7-2l4.22,15.68,3-.45-4.31-16c2.25-.59,4.52-1.13,6.8-1.64l4.53,16.82c1-.11,2-.21,3-.3l-4.6-17.13c2.28-.46,4.59-.89,6.91-1.26L440,54.62l3.06-.17-4.87-18.11q3.48-.5,7-.86l5,18.74,3.09,0-5.11-19q3.54-.31,7.12-.49l5.26,19.59c1.05,0,2.1.08,3.14.12l-5.32-19.81q3.58-.12,7.22-.1l5.47,20.34,3.17.24-5.53-20.54c1.77,0,3.55.08,5.33.17Z"/><path class="bed75897-2dba-4852-9c76-3356d6de3324" d="M480.73,223.28v19.31c-2.33.21-4.66.37-7,.46V223l-3,.33v19.84q-3.51.07-7,0V223.89q-1.5.09-3,.15v19q-3.51-.13-7-.42v-18.4h-.89l-2.11,0v18.13c-2.41-.25-4.8-.55-7.19-.91l.09-17.44-3-.18L440.55,241q-3.44-.57-6.82-1.3V223.2c-1-.11-2-.24-3-.36V239c-2.35-.55-4.69-1.16-7-1.81V221.81l-1.75-.29c-.42-.07-.83-.16-1.25-.24v15c-.62-.19-1.24-.37-1.85-.57-1.73-.55-3.44-1.14-5.15-1.76V219.86l-3-.71v13.7c-2.36-.91-4.69-1.86-7-2.87V217.3c-1-.29-2-.58-3-.89v12.21c-2.36-1.09-4.7-2.25-7-3.46V214.1c-1-.36-2-.72-3-1.09v10.53c-2.37-1.3-4.71-2.67-7-4.09v-9.22c-1-.42-2-.87-3-1.31v8.62c-2.38-1.55-4.72-3.15-7-4.82v-7.11c-1-.5-2-1-3-1.52v6.38q-3.59-2.76-7-5.69v-4.55c-.88-.51-1.75-1-2.62-1.57-.15,1.79-.28,3.57-.38,5.36v4l-.2.23c-.08,2.26-.11,4.51-.11,6.77a3.88,3.88,0,0,0,.31.26v.27a192.09,192.09,0,0,0,53.25,24,199.26,199.26,0,0,0,69.75,6.36V223.68l-.51-.23Z"/><path class="bed75897-2dba-4852-9c76-3356d6de3324" d="M12.71,246.71a395.09,395.09,0,0,0,93.36,5.19c49.33-3.14,98.31-15.54,145.84-36.91l-3.57-8.09c-4.19,1.85-8.39,3.61-12.61,5.34V193.68c-1,.48-2,.94-3,1.4v18.38c-2.33.93-4.67,1.84-7,2.73V198.3l-3,1.32v17.72c-2.33.88-4.67,1.72-7,2.56V202.65l-3,1.26V221c-2.33.81-4.67,1.6-7,2.37V206.76l-3,1.18v16.41c-2.33.76-4.67,1.5-7,2.22v-16l-3,1.12v15.75c-2.33.7-4.67,1.4-7,2.06V214.23l-3,1v15.1c-2.33.65-4.67,1.29-7,1.91V217.6l-3,1V233c-2.33.59-4.67,1.18-7,1.74v-14l-3,.92v13.79c-2.33.54-4.67,1.07-7,1.58V223.66l-3,.85v13.14c-2.33.49-4.67,1-7,1.41V226.35c-1,.25-2,.53-3,.78v12.5c-2.33.43-4.67.85-7,1.25V228.81c-1,.24-2,.49-3,.72v11.85c-2.33.38-4.67.74-7,1.09V231.06l-3,.65V242.9c-2.33.33-4.67.64-7,.94V233.09l-3,.58v10.54c-2.33.28-4.67.54-7,.78V234.9l-2.43.43-.57.09v9.89l-1.84.19q-2.58.24-5.16.45V236.5l-3,.46v9.23c-2.34.17-4.67.34-7,.48V237.9l-3,.39v8.55q-3.51.19-7,.33v-8.09l-3,.33v7.88c-2.34.08-4.67.13-7,.18v-7.41l-3,.27v7.19c-2.34,0-4.67,0-7,0v-6.72c-1,.07-2,.16-3,.22v6.48c-2.34,0-4.67-.05-7-.11v-6c-1,0-2,.11-3,.15v5.78q-3.51-.1-7-.26v-5.3l-3,.09v5.06q-3.51-.18-7-.41V242l-3,0v4.34q-3.51-.25-7-.57v-3.81l-3-.05v4.63Z"/><path class="bed75897-2dba-4852-9c76-3356d6de3324" d="M37.78,34l1.13-12.43Q42.47,21.24,46,21L44.84,33.65c1,0,2-.07,3-.11L49,20.76c2.37-.16,4.73-.31,7.07-.43l-1.18,13,3-.06,1.19-13.11c2.37-.11,4.72-.19,7.05-.26L65,33.23h3l1.22-13.41q3.54-.07,7-.09L75,33.34l3,.09,1.24-13.69q3.54,0,7,.1L85,33.71l3,.14,1.27-13.94q3.53.11,7,.28L95,34.3l3,.24,1.29-14.17c2.34.13,4.67.3,7,.48L105,35.18c1,.1,2,.19,3,.3l1.3-14.38q3.51.31,7,.71l-1.32,14.5,3,.41,1.33-14.56c2.33.29,4.65.59,6.94.93L124.8,37.75l3,.49,1.33-14.69q3.5.56,6.92,1.18L134.68,39.5c1,.19,2,.4,3,.6L139,25.3q3.5.68,6.9,1.44l-1.35,14.85c1,.22,2,.46,2.95.69l1.35-14.83q3.48.82,6.87,1.74L154.35,44c1,.26,2,.51,2.94.78L158.64,30q3.47,1,6.84,2.07l-1.34,14.77c1,.3,2,.59,2.93.9L168.41,33q3.45,1.16,6.81,2.41L173.89,50c1,.34,1.94.71,2.91,1.06l1.33-14.56q3.44,1.34,6.77,2.79l-1.3,14.38c1,.39,1.93.8,2.9,1.21l1.3-14.32q3.42,1.55,6.74,3.23l-1.28,14.05c1,.44,1.94.87,2.89,1.33l1.26-13.9c2.27,1.2,4.51,2.43,6.7,3.7l-1.23,13.54,2.87,1.52L207,50.72c2.26,1.37,4.47,2.79,6.65,4.26l-1.17,12.85c1,.56,1.91,1.14,2.86,1.72l1.14-12.65c2.25,1.58,4.44,3.23,6.59,4.92l-1.09,12c.95.63,1.9,1.25,2.84,1.9l1.05-11.61q3.34,2.73,6.52,5.63l-1,10.75c.94.71,1.88,1.45,2.81,2.18l.93-10.3c.52.5,1.06,1,1.57,1.49,1.66,1.64,3.28,3.34,4.87,5.06L240.73,88c.94.81,1.87,1.63,2.79,2.45l.78-8.53.06.07c.27-3.66.45-7.33.51-11-.31-.34-.62-.69-.93-1C216.29,40.38,180.22,22.1,136.72,15.62c-30.2-4.5-64-3.37-100.59,3.35L34.75,34.19Z"/><circle class="e4391353-c447-4bae-b006-7197d16cf2d0" cx="304.88" cy="140.86" r="68.4"/><rect class="fcb20691-d4b2-4e40-b9da-4233d00d1abb" x="252.53" y="137.42" width="104.71" height="7.64"/><path class="fcb20691-d4b2-4e40-b9da-4233d00d1abb" d="M277,144.3a3.82,3.82,0,0,1-3.82-3.82V116.79a3.82,3.82,0,1,1,7.64,0v23.69A3.82,3.82,0,0,1,277,144.3Z"/><line class="fcb20691-d4b2-4e40-b9da-4233d00d1abb" x1="299.15" y1="116.79" x2="288.69" y2="127.29"/><path class="fcb20691-d4b2-4e40-b9da-4233d00d1abb" d="M288.69,131.11a3.83,3.83,0,0,1-2.71-6.52l10.47-10.5a3.82,3.82,0,1,1,5.41,5.4L291.39,130A3.79,3.79,0,0,1,288.69,131.11Z"/><polyline class="fcb20691-d4b2-4e40-b9da-4233d00d1abb" points="309.09 129.78 309.09 153.47 332.78 153.47 332.85 153.46 345.02 141.29 345.02 141.24 332.85 129.06 332.78 129.02 309.09 129.02"/><path class="fcb20691-d4b2-4e40-b9da-4233d00d1abb" d="M332.78,157.29H309.09a3.82,3.82,0,0,1-3.82-3.82V129.78a2.36,2.36,0,0,1,0-.38,2.42,2.42,0,0,1,0-.38,3.83,3.83,0,0,1,3.82-3.83h23.69a3.84,3.84,0,0,1,2.24.73l.06,0a3.6,3.6,0,0,1,.47.39l12.17,12.17a3.83,3.83,0,0,1,1.12,2.81,4,4,0,0,1-1.12,2.65l-12.17,12.17a3.8,3.8,0,0,1-2.08,1.07A4,4,0,0,1,332.78,157.29Zm-19.87-7.64h18.34l8.39-8.39-8.42-8.42H312.91Z"/><path class="fcb20691-d4b2-4e40-b9da-4233d00d1abb" d="M304.5,198.57a58.09,58.09,0,1,1,58.09-58.09A58.15,58.15,0,0,1,304.5,198.57Zm0-109.3a51.21,51.21,0,1,0,51.21,51.21A51.27,51.27,0,0,0,304.5,89.27Z"/><path class="fcb20691-d4b2-4e40-b9da-4233d00d1abb" d="M299.15,120.61H277a3.82,3.82,0,1,1,0-7.64h22.16a3.82,3.82,0,0,1,0,7.64Z"/><line class="fcb20691-d4b2-4e40-b9da-4233d00d1abb" x1="288.85" y1="106.45" x2="299.15" y2="116.79"/><path class="fcb20691-d4b2-4e40-b9da-4233d00d1abb" d="M299.15,120.61a3.83,3.83,0,0,1-2.71-1.13l-10.29-10.33a3.82,3.82,0,1,1,5.41-5.4l10.3,10.34a3.82,3.82,0,0,1-2.71,6.52Z"/><path class="e4391353-c447-4bae-b006-7197d16cf2d0" d="M74,158.45a27.84,27.84,0,0,0,1.89,10.83,19.27,19.27,0,0,0,5.27,7.35,21.34,21.34,0,0,0,7.77,4.18,33,33,0,0,0,9.53,1.31,26.78,26.78,0,0,0,9.46-1.47,18.42,18.42,0,0,0,6.35-3.79,13.65,13.65,0,0,0,3.52-5.34,18,18,0,0,0,1.08-6.11q0-6.34-2.5-9.36a14.31,14.31,0,0,0-5.48-4.26,104.53,104.53,0,0,0-12-4.1q-6.83-1.94-16.82-5a33.68,33.68,0,0,1-10.34-4.87,26.26,26.26,0,0,1-6.56-6.74,25.17,25.17,0,0,1-3.45-7.89,36.28,36.28,0,0,1-1-8.51,32.13,32.13,0,0,1,3-14.47,30,30,0,0,1,8-10.14,33.57,33.57,0,0,1,11.36-6A43.79,43.79,0,0,1,96,82.15a44.75,44.75,0,0,1,14.26,2.24A33.79,33.79,0,0,1,122,91.12a32.46,32.46,0,0,1,8,11.07,36.74,36.74,0,0,1,3,15.24H116.16q-.68-10.68-6.36-15.08T95.34,97.93a28,28,0,0,0-6.08.7A18,18,0,0,0,83.58,101a12.72,12.72,0,0,0-5.94,11.38q0,5.88,3.17,9.21a19.94,19.94,0,0,0,8.31,5l4.26,1.32c2.48.77,5.25,1.63,8.31,2.55s6.06,1.84,9,2.71,5,1.53,6.29,1.94a26.8,26.8,0,0,1,8.24,4.64,28.28,28.28,0,0,1,5.88,6.73,29.68,29.68,0,0,1,3.52,8.13,34,34,0,0,1,1.14,8.66,35,35,0,0,1-3.31,15.87,31,31,0,0,1-8.71,10.75,35.49,35.49,0,0,1-12.3,6.11,51.85,51.85,0,0,1-14.06,1.94,50.85,50.85,0,0,1-15.54-2.32,33.37,33.37,0,0,1-21.36-19.42,46.09,46.09,0,0,1-3.38-17.72Z"/><path class="e4391353-c447-4bae-b006-7197d16cf2d0" d="M146.43,84.78h46.9q13,0,20.82,6.81T222,112.17a27.37,27.37,0,0,1-3.58,14.32,23.93,23.93,0,0,1-10.21,9.21V136a21,21,0,0,1,13.52,9.67q4.59,7.5,4.59,18.8a35.77,35.77,0,0,1-2,12.15,24.88,24.88,0,0,1-6.36,9.75,30.92,30.92,0,0,1-11.08,6.5,48.21,48.21,0,0,1-16.09,2.4H146.43Zm16.9,46.27H190.9A14,14,0,0,0,201,127.11q4.05-3.94,4.05-11.38,0-8.36-3.65-11.76t-10.54-3.4H163.33Zm0,48.44H193.2q7.7,0,12-4.56T209.42,162q0-8.19-4.26-12.61t-12-4.41H163.33Z"/><path class="e4391353-c447-4bae-b006-7197d16cf2d0" d="M388.73,83.61h16.89v93.78h49.07V194.1h-66Z"/></g></svg>