<svg xmlns="http://www.w3.org/2000/svg" viewBox="0 0 498 299"><defs><style>.bd5edd1b-b532-4bf3-a563-8219756e5b66{fill:#d8d8d8;}.f8c6a7ed-e0ca-42bb-b8bd-612157c3c0b4{fill:#8cc63f;}.f91411ff-efdb-4c64-9f97-6c1ee6667825{fill:#fff;}</style></defs><title>sbol</title><g id="a197e6c5-b994-4540-875b-739fceb05a36" data-name="Layer 3"><path class="bd5edd1b-b532-4bf3-a563-8219756e5b66" d="M474.18,32.1A192.25,192.25,0,0,0,450,31.28a199.13,199.13,0,0,0-51,8.37,179.24,179.24,0,0,0-22.1,9.13,185,185,0,0,0-27.07,16.43q.58,2.6,1.25,5.16l1.09,4c.41,1.5.85,3,1.3,4.46L356,77.53,355,73.59q2.91-2.49,5.94-4.86l1.52,5.65,2.76-1.27-1.7-6.34q3-2.23,6.09-4.32l2.11,7.84,2.8-1.14-2.28-8.45q3.07-2,6.22-3.83l2.63,9.79,2.84-1-2.77-10.33c2.08-1.17,4.2-2.27,6.35-3.34l3.09,11.51c1-.3,1.92-.58,2.88-.86l-3.23-12q3.19-1.52,6.47-2.89l3.51,13.07c1-.24,1.94-.49,2.92-.72l-3.63-13.49c2.17-.87,4.37-1.7,6.58-2.47L410,58.58c1-.2,2-.38,3-.57l-4-14.83c2.21-.73,4.45-1.41,6.7-2l4.22,15.68,3-.45-4.31-16c2.25-.59,4.52-1.13,6.8-1.64l4.53,16.82c1-.11,2-.21,3-.3l-4.6-17.13c2.28-.46,4.59-.89,6.91-1.26L440,54.62l3.06-.17-4.87-18.11q3.48-.5,7-.86l5,18.74,3.09,0-5.11-19q3.54-.31,7.12-.49l5.26,19.59c1.05,0,2.1.08,3.14.12l-5.32-19.81q3.58-.12,7.22-.1l5.47,20.34,3.17.24-5.53-20.54c1.77,0,3.55.08,5.33.17Z"/><path class="bd5edd1b-b532-4bf3-a563-8219756e5b66" d="M480.73,223.28v19.31c-2.33.21-4.66.37-7,.46V223l-3,.33v19.84q-3.51.07-7,0V223.89q-1.5.09-3,.15v19q-3.51-.13-7-.42v-18.4h-.89l-2.11,0v18.13c-2.41-.25-4.8-.55-7.19-.91l.09-17.44-3-.18L440.55,241q-3.44-.57-6.82-1.3V223.2c-1-.11-2-.24-3-.36V239c-2.35-.55-4.69-1.16-7-1.81V221.81l-1.75-.29c-.42-.07-.83-.16-1.25-.24v15c-.62-.19-1.24-.37-1.85-.57-1.73-.55-3.44-1.14-5.15-1.76V219.86l-3-.71v13.7c-2.36-.91-4.69-1.86-7-2.87V217.3c-1-.29-2-.58-3-.89v12.21c-2.36-1.09-4.7-2.25-7-3.46V214.1c-1-.36-2-.72-3-1.09v10.53c-2.37-1.3-4.71-2.67-7-4.09v-9.22c-1-.42-2-.87-3-1.31v8.62c-2.38-1.55-4.72-3.15-7-4.82v-7.11c-1-.5-2-1-3-1.52v6.38q-3.59-2.76-7-5.69v-4.55c-.88-.51-1.75-1-2.62-1.57-.15,1.79-.28,3.57-.38,5.36v4l-.2.23c-.08,2.26-.11,4.51-.11,6.77a3.88,3.88,0,0,0,.31.26v.27a192.09,192.09,0,0,0,53.25,24,199.26,199.26,0,0,0,69.75,6.36V223.68l-.51-.23Z"/><path class="bd5edd1b-b532-4bf3-a563-8219756e5b66" d="M12.71,246.71a395.09,395.09,0,0,0,93.36,5.19c49.33-3.14,98.31-15.54,145.84-36.91l-3.57-8.09c-4.19,1.85-8.39,3.61-12.61,5.34V193.68c-1,.48-2,.94-3,1.4v18.38c-2.33.93-4.67,1.84-7,2.73V198.3l-3,1.32v17.72c-2.33.88-4.67,1.72-7,2.56V202.65l-3,1.26V221c-2.33.81-4.67,1.6-7,2.37V206.76l-3,1.18v16.41c-2.33.76-4.67,1.5-7,2.22v-16l-3,1.12v15.75c-2.33.7-4.67,1.4-7,2.06V214.23l-3,1v15.1c-2.33.65-4.67,1.29-7,1.91V217.6l-3,1V233c-2.33.59-4.67,1.18-7,1.74v-14l-3,.92v13.79c-2.33.54-4.67,1.07-7,1.58V223.66l-3,.85v13.14c-2.33.49-4.67,1-7,1.41V226.35c-1,.25-2,.53-3,.78v12.5c-2.33.43-4.67.85-7,1.25V228.81c-1,.24-2,.49-3,.72v11.85c-2.33.38-4.67.74-7,1.09V231.06l-3,.65V242.9c-2.33.33-4.67.64-7,.94V233.09l-3,.58v10.54c-2.33.28-4.67.54-7,.78V234.9l-2.43.43-.57.09v9.89l-1.84.19q-2.58.24-5.16.45V236.5l-3,.46v9.23c-2.34.17-4.67.34-7,.48V237.9l-3,.39v8.55q-3.51.19-7,.33v-8.09l-3,.33v7.88c-2.34.08-4.67.13-7,.18v-7.41l-3,.27v7.19c-2.34,0-4.67,0-7,0v-6.72c-1,.07-2,.16-3,.22v6.48c-2.34,0-4.67-.05-7-.11v-6c-1,0-2,.11-3,.15v5.78q-3.51-.1-7-.26v-5.3l-3,.09v5.06q-3.51-.18-7-.41V242l-3,0v4.34q-3.51-.25-7-.57v-3.81l-3-.05v4.63Z"/><path class="bd5edd1b-b532-4bf3-a563-8219756e5b66" d="M37.78,34l1.13-12.43Q42.47,21.24,46,21L44.84,33.65c1,0,2-.07,3-.11L49,20.76c2.37-.16,4.73-.31,7.07-.43l-1.18,13,3-.06,1.19-13.11c2.37-.11,4.72-.19,7.05-.26L65,33.23h3l1.22-13.41q3.54-.07,7-.09L75,33.34l3,.09,1.24-13.69q3.54,0,7,.1L85,33.71l3,.14,1.27-13.94q3.53.11,7,.28L95,34.3l3,.24,1.29-14.17c2.34.13,4.67.3,7,.48L105,35.18c1,.1,2,.19,3,.3l1.3-14.38q3.51.31,7,.71l-1.32,14.5,3,.41,1.33-14.56c2.33.29,4.65.59,6.94.93L124.8,37.75l3,.49,1.33-14.69q3.5.56,6.92,1.18L134.68,39.5c1,.19,2,.4,3,.6L139,25.3q3.5.68,6.9,1.44l-1.35,14.85c1,.22,2,.46,2.95.69l1.35-14.83q3.48.82,6.87,1.74L154.35,44c1,.26,2,.51,2.94.78L158.64,30q3.47,1,6.84,2.07l-1.34,14.77c1,.3,2,.59,2.93.9L168.41,33q3.45,1.16,6.81,2.41L173.89,50c1,.34,1.94.71,2.91,1.06l1.33-14.56q3.44,1.34,6.77,2.79l-1.3,14.38c1,.39,1.93.8,2.9,1.21l1.3-14.32q3.42,1.55,6.74,3.23l-1.28,14.05c1,.44,1.94.87,2.89,1.33l1.26-13.9c2.27,1.2,4.51,2.43,6.7,3.7l-1.23,13.54,2.87,1.52L207,50.72c2.26,1.37,4.47,2.79,6.65,4.26l-1.17,12.85c1,.56,1.91,1.14,2.86,1.72l1.14-12.65c2.25,1.58,4.44,3.23,6.59,4.92l-1.09,12c.95.63,1.9,1.25,2.84,1.9l1.05-11.61q3.34,2.73,6.52,5.63l-1,10.75c.94.71,1.88,1.45,2.81,2.18l.93-10.3c.52.5,1.06,1,1.57,1.49,1.66,1.64,3.28,3.34,4.87,5.06L240.73,88c.94.81,1.87,1.63,2.79,2.45l.78-8.53.06.07c.27-3.66.45-7.33.51-11-.31-.34-.62-.69-.93-1C216.29,40.38,180.22,22.1,136.72,15.62c-30.2-4.5-64-3.37-100.59,3.35L34.75,34.19Z"/><circle class="f8c6a7ed-e0ca-42bb-b8bd-612157c3c0b4" cx="304.88" cy="140.86" r="68.4"/><rect class="f91411ff-efdb-4c64-9f97-6c1ee6667825" x="252.53" y="137.42" width="104.71" height="7.64"/><path class="f91411ff-efdb-4c64-9f97-6c1ee6667825" d="M277,144.3a3.82,3.82,0,0,1-3.82-3.82V116.79a3.82,3.82,0,1,1,7.64,0v23.69A3.82,3.82,0,0,1,277,144.3Z"/><line class="f91411ff-efdb-4c64-9f97-6c1ee6667825" x1="299.15" y1="116.79" x2="288.69" y2="127.29"/><path class="f91411ff-efdb-4c64-9f97-6c1ee6667825" d="M288.69,131.11a3.83,3.83,0,0,1-2.71-6.52l10.47-10.5a3.82,3.82,0,1,1,5.41,5.4L291.39,130A3.79,3.79,0,0,1,288.69,131.11Z"/><polyline class="f91411ff-efdb-4c64-9f97-6c1ee6667825" points="309.09 129.78 309.09 153.47 332.78 153.47 332.85 153.46 345.02 141.29 345.02 141.24 332.85 129.06 332.78 129.02 309.09 129.02"/><path class="f91411ff-efdb-4c64-9f97-6c1ee6667825" d="M332.78,157.29H309.09a3.82,3.82,0,0,1-3.82-3.82V129.78a2.36,2.36,0,0,1,0-.38,2.42,2.42,0,0,1,0-.38,3.83,3.83,0,0,1,3.82-3.83h23.69a3.84,3.84,0,0,1,2.24.73l.06,0a3.6,3.6,0,0,1,.47.39l12.17,12.17a3.83,3.83,0,0,1,1.12,2.81,4,4,0,0,1-1.12,2.65l-12.17,12.17a3.8,3.8,0,0,1-2.08,1.07A4,4,0,0,1,332.78,157.29Zm-19.87-7.64h18.34l8.39-8.39-8.42-8.42H312.91Z"/><path class="f91411ff-efdb-4c64-9f97-6c1ee6667825" d="M304.5,198.57a58.09,58.09,0,1,1,58.09-58.09A58.15,58.15,0,0,1,304.5,198.57Zm0-109.3a51.21,51.21,0,1,0,51.21,51.21A51.27,51.27,0,0,0,304.5,89.27Z"/><path class="f91411ff-efdb-4c64-9f97-6c1ee6667825" d="M299.15,120.61H277a3.82,3.82,0,1,1,0-7.64h22.16a3.82,3.82,0,0,1,0,7.64Z"/><line class="f91411ff-efdb-4c64-9f97-6c1ee6667825" x1="288.85" y1="106.45" x2="299.15" y2="116.79"/><path class="f91411ff-efdb-4c64-9f97-6c1ee6667825" d="M299.15,120.61a3.83,3.83,0,0,1-2.71-1.13l-10.29-10.33a3.82,3.82,0,1,1,5.41-5.4l10.3,10.34a3.82,3.82,0,0,1-2.71,6.52Z"/><path class="f8c6a7ed-e0ca-42bb-b8bd-612157c3c0b4" d="M74,158.45a27.84,27.84,0,0,0,1.89,10.83,19.27,19.27,0,0,0,5.27,7.35,21.34,21.34,0,0,0,7.77,4.18,33,33,0,0,0,9.53,1.31,26.78,26.78,0,0,0,9.46-1.47,18.42,18.42,0,0,0,6.35-3.79,13.58,13.58,0,0,0,3.52-5.34,18,18,0,0,0,1.08-6.11q0-6.34-2.5-9.36a14.41,14.41,0,0,0-5.48-4.26,104.53,104.53,0,0,0-12-4.1q-6.83-1.94-16.82-5a33.68,33.68,0,0,1-10.34-4.87,26.26,26.26,0,0,1-6.56-6.74,25.17,25.17,0,0,1-3.45-7.89,36.22,36.22,0,0,1-1-8.51,32.13,32.13,0,0,1,3-14.47,30,30,0,0,1,8-10.14,33.75,33.75,0,0,1,11.36-6A43.79,43.79,0,0,1,96,82.15a44.75,44.75,0,0,1,14.26,2.24A33.79,33.79,0,0,1,122,91.12a32.46,32.46,0,0,1,8,11.07,36.74,36.74,0,0,1,3,15.24H116.16q-.68-10.67-6.36-15.08T95.34,97.93a28,28,0,0,0-6.08.7A18,18,0,0,0,83.58,101a12.72,12.72,0,0,0-5.94,11.38q0,5.88,3.17,9.21a20.06,20.06,0,0,0,8.31,5c.36.1,1.78.54,4.26,1.31s5.25,1.63,8.31,2.55,6.06,1.84,9,2.71,5,1.53,6.29,1.94a26.8,26.8,0,0,1,8.24,4.64,28.28,28.28,0,0,1,5.88,6.73,29.68,29.68,0,0,1,3.52,8.13,34,34,0,0,1,1.14,8.66,35,35,0,0,1-3.31,15.87,31,31,0,0,1-8.71,10.75,35.49,35.49,0,0,1-12.3,6.11,51.85,51.85,0,0,1-14.06,1.94,50.85,50.85,0,0,1-15.54-2.32,33.37,33.37,0,0,1-21.36-19.42,46.09,46.09,0,0,1-3.38-17.72Z"/><path class="f8c6a7ed-e0ca-42bb-b8bd-612157c3c0b4" d="M146.43,84.78h46.9q13,0,20.82,6.81T222,112.17a27.37,27.37,0,0,1-3.58,14.32,23.93,23.93,0,0,1-10.21,9.21V136a21,21,0,0,1,13.52,9.67q4.59,7.5,4.59,18.8a35.73,35.73,0,0,1-2,12.15,24.88,24.88,0,0,1-6.36,9.75,30.78,30.78,0,0,1-11.08,6.5,48.21,48.21,0,0,1-16.09,2.4H146.43Zm16.9,46.27H190.9A14,14,0,0,0,201,127.11q4.05-3.94,4.05-11.38,0-8.36-3.65-11.76t-10.54-3.4H163.33Zm0,48.44H193.2q7.7,0,12-4.56T209.42,162q0-8.19-4.26-12.61t-12-4.41H163.33Z"/><path class="f8c6a7ed-e0ca-42bb-b8bd-612157c3c0b4" d="M388.73,83.61h16.89v93.78h49.07V194.1h-66Z"/><path class="bd5edd1b-b532-4bf3-a563-8219756e5b66" d="M54.15,273.75v-4h4.5v4h1.78v3H58.65v6.46a1.08,1.08,0,0,0,.26.81,1.2,1.2,0,0,0,.82.24h.7v3c-.42,0-.84,0-1.25,0s-.82,0-1.2,0a14.67,14.67,0,0,1-1.76-.09,2.41,2.41,0,0,1-1.18-.44,2,2,0,0,1-.68-1,6.37,6.37,0,0,1-.21-1.81v-7.21h-1.5v-3Z"/><path class="bd5edd1b-b532-4bf3-a563-8219756e5b66" d="M66.66,269.42v5.83h0a3.14,3.14,0,0,1,1.43-1.47,4.25,4.25,0,0,1,1.69-.38,5.29,5.29,0,0,1,1.34.17,2.93,2.93,0,0,1,1.13.6,3,3,0,0,1,.77,1.14,4.76,4.76,0,0,1,.29,1.76v10.21h-4.5v-8.93a2.36,2.36,0,0,0-.25-1.23,1,1,0,0,0-.85-.37.94.94,0,0,0-.85.37,2.26,2.26,0,0,0-.25,1.23v8.93H62.15V269.42Z"/><path class="bd5edd1b-b532-4bf3-a563-8219756e5b66" d="M80,283.05a2.08,2.08,0,0,0,.38,1.47,1.19,1.19,0,0,0,.85.36,1.05,1.05,0,0,0,.93-.49,3.47,3.47,0,0,0,.34-1.86H86.6a4.54,4.54,0,0,1-5.31,5,8.62,8.62,0,0,1-2.73-.37,3.69,3.69,0,0,1-1.77-1.2,5.14,5.14,0,0,1-1-2.19,15.37,15.37,0,0,1-.29-3.27,14.83,14.83,0,0,1,.32-3.31,5.42,5.42,0,0,1,1-2.2,4,4,0,0,1,1.79-1.24,8,8,0,0,1,2.61-.38,7.72,7.72,0,0,1,2.37.32,3.87,3.87,0,0,1,1.7,1.09,4.79,4.79,0,0,1,1,2,11.78,11.78,0,0,1,.34,3.09v1.38H80Zm2.21-6.4a1.2,1.2,0,0,0-2,0,3.62,3.62,0,0,0-.26,1.57v.61h2.48v-.61A3.45,3.45,0,0,0,82.25,276.65Z"/><path class="bd5edd1b-b532-4bf3-a563-8219756e5b66" d="M99.58,283.83a1.36,1.36,0,0,0,.25.57,1.07,1.07,0,0,0,1,.48,1.44,1.44,0,0,0,.91-.3,1,1,0,0,0,.39-.85,1.05,1.05,0,0,0-.49-.93,5.25,5.25,0,0,0-1.21-.57l-1.56-.53a6.48,6.48,0,0,1-1.57-.75A4.05,4.05,0,0,1,96,279.69a3.87,3.87,0,0,1-.49-2.07,4.13,4.13,0,0,1,.33-1.66,3.55,3.55,0,0,1,1-1.34,4.83,4.83,0,0,1,1.67-.9,7.77,7.77,0,0,1,2.39-.32c3.39,0,5.08,1.41,5.08,4.25h-3.9a1.7,1.7,0,0,0-.32-1.19,1.18,1.18,0,0,0-.88-.31,1.26,1.26,0,0,0-.83.27,1,1,0,0,0-.33.78,1,1,0,0,0,.49.86,6.47,6.47,0,0,0,1.22.52l1.56.47a6.49,6.49,0,0,1,1.56.71A3.94,3.94,0,0,1,105.8,281a4,4,0,0,1,.48,2.09,4.37,4.37,0,0,1-.37,1.83,4.27,4.27,0,0,1-1.06,1.43,4.5,4.5,0,0,1-1.71.9,8,8,0,0,1-2.28.3,6,6,0,0,1-4.07-1.13,4.29,4.29,0,0,1-1.24-3.35h4A3.59,3.59,0,0,0,99.58,283.83Z"/><path class="bd5edd1b-b532-4bf3-a563-8219756e5b66" d="M109.24,288.43a4.07,4.07,0,0,0,.5,0,1.67,1.67,0,0,0,.71-.13,1.45,1.45,0,0,0,.46-.29.93.93,0,0,0,.25-.33.81.81,0,0,0,.08-.28,1.46,1.46,0,0,0-.07-.4c0-.17-.08-.34-.13-.52l-3.55-12.76h4.62l1.38,9.13h.05l1.3-9.13h4.5l-3.62,13.91a9.57,9.57,0,0,1-.69,1.94,3.89,3.89,0,0,1-.93,1.21,3,3,0,0,1-1.24.62,6.41,6.41,0,0,1-1.6.18c-.48,0-.93,0-1.34,0s-.8,0-1.18-.07v-3.15A4,4,0,0,0,109.24,288.43Z"/><path class="bd5edd1b-b532-4bf3-a563-8219756e5b66" d="M125.1,273.75v1.65h.05a3.23,3.23,0,0,1,3.27-2,5.47,5.47,0,0,1,1.39.16,2.58,2.58,0,0,1,1.12.59,3.06,3.06,0,0,1,.75,1.12,5.09,5.09,0,0,1,.27,1.8v10.21h-4.5v-8.93a2.26,2.26,0,0,0-.25-1.23,1.16,1.16,0,0,0-1.7,0,2.26,2.26,0,0,0-.25,1.23v8.93h-4.5V273.75Z"/><path class="bd5edd1b-b532-4bf3-a563-8219756e5b66" d="M135.18,273.75v-4h4.5v4h1.78v3h-1.78v6.46a1,1,0,0,0,.27.81,1.15,1.15,0,0,0,.81.24h.7v3c-.42,0-.84,0-1.25,0s-.82,0-1.2,0a14.38,14.38,0,0,1-1.75-.09,2.45,2.45,0,0,1-1.19-.44,2,2,0,0,1-.68-1,6.37,6.37,0,0,1-.21-1.81v-7.21h-1.5v-3Z"/><path class="bd5edd1b-b532-4bf3-a563-8219756e5b66" d="M147.69,269.42v5.83h.05a3.11,3.11,0,0,1,1.44-1.47,4.22,4.22,0,0,1,1.69-.38,5.41,5.41,0,0,1,1.34.17,3,3,0,0,1,1.12.6,3,3,0,0,1,.78,1.14,4.78,4.78,0,0,1,.28,1.76v10.21h-4.5v-8.93a2.26,2.26,0,0,0-.25-1.23,1.16,1.16,0,0,0-1.7,0,2.26,2.26,0,0,0-.25,1.23v8.93h-4.5V269.42Z"/><path class="bd5edd1b-b532-4bf3-a563-8219756e5b66" d="M161.07,283.05a2.08,2.08,0,0,0,.38,1.47,1.19,1.19,0,0,0,.85.36,1.08,1.08,0,0,0,.94-.49,3.57,3.57,0,0,0,.34-1.86h4a4.54,4.54,0,0,1-5.31,5,8.51,8.51,0,0,1-2.72-.37,3.67,3.67,0,0,1-1.78-1.2,5.14,5.14,0,0,1-1-2.19,16.05,16.05,0,0,1-.29-3.27,14.21,14.21,0,0,1,.33-3.31,5.28,5.28,0,0,1,1-2.2,4.08,4.08,0,0,1,1.79-1.24,8.08,8.08,0,0,1,2.61-.38,7.72,7.72,0,0,1,2.37.32,3.87,3.87,0,0,1,1.7,1.09,4.92,4.92,0,0,1,1,2,12.27,12.27,0,0,1,.33,3.09v1.38h-6.68Zm2.22-6.4a1,1,0,0,0-1-.5,1,1,0,0,0-1,.5,3.45,3.45,0,0,0-.27,1.57v.61h2.48v-.61A3.62,3.62,0,0,0,163.29,276.65Z"/><path class="bd5edd1b-b532-4bf3-a563-8219756e5b66" d="M170.43,273.75v-4h4.5v4h1.78v3h-1.78v6.46a1,1,0,0,0,.27.81,1.15,1.15,0,0,0,.81.24h.7v3c-.42,0-.83,0-1.25,0s-.82,0-1.2,0a14.38,14.38,0,0,1-1.75-.09,2.45,2.45,0,0,1-1.19-.44,2,2,0,0,1-.68-1,6.37,6.37,0,0,1-.21-1.81v-7.21h-1.5v-3Z"/><path class="bd5edd1b-b532-4bf3-a563-8219756e5b66" d="M183,269.42v3.35h-4.5v-3.35Zm0,4.33v13.53h-4.5V273.75Z"/><path class="bd5edd1b-b532-4bf3-a563-8219756e5b66" d="M192.32,277.71a3.15,3.15,0,0,0-.23-.84,1.15,1.15,0,0,0-1.63-.38,1.21,1.21,0,0,0-.42.67,6.17,6.17,0,0,0-.21,1.3q-.06.81-.06,2.07c0,.83,0,1.52.06,2.06a6,6,0,0,0,.21,1.29,1.18,1.18,0,0,0,.42.66,1,1,0,0,0,.63.19,1.12,1.12,0,0,0,1-.48,3.26,3.26,0,0,0,.33-1.75v-.87h4.06a11.26,11.26,0,0,1-.28,2.72,4.29,4.29,0,0,1-.92,1.86,5.52,5.52,0,0,1-4.16,1.35,11.55,11.55,0,0,1-2.37-.23,3.68,3.68,0,0,1-1.84-1,4.86,4.86,0,0,1-1.19-2.08,12.09,12.09,0,0,1-.43-3.54,12.6,12.6,0,0,1,.48-3.85,5.36,5.36,0,0,1,1.29-2.23,4,4,0,0,1,1.91-1,10.6,10.6,0,0,1,2.38-.25,6.42,6.42,0,0,1,2.49.41,3.8,3.8,0,0,1,1.57,1.15,4.25,4.25,0,0,1,.83,1.78,10.25,10.25,0,0,1,.24,2.31h-4.06A9.74,9.74,0,0,0,192.32,277.71Z"/><path class="bd5edd1b-b532-4bf3-a563-8219756e5b66" d="M210.33,269.42v5.85h0a2.45,2.45,0,0,1,1.12-1.46,3.46,3.46,0,0,1,1.71-.41,4.44,4.44,0,0,1,1.75.33,3,3,0,0,1,1.3,1.13,6.34,6.34,0,0,1,.82,2.1,15.79,15.79,0,0,1,.28,3.27,12.87,12.87,0,0,1-.9,5.55,3.24,3.24,0,0,1-3.15,1.78,3.39,3.39,0,0,1-1.93-.5,3.44,3.44,0,0,1-1.15-1.63h0v1.85h-4.35V269.42Zm0,12.91a5.69,5.69,0,0,0,.19,1.16,1.08,1.08,0,0,0,.39.61,1,1,0,0,0,.62.18,1.07,1.07,0,0,0,.65-.18,1.08,1.08,0,0,0,.39-.61,5.07,5.07,0,0,0,.19-1.16c0-.49.05-1.09.05-1.8s0-1.35-.05-1.83a5.07,5.07,0,0,0-.19-1.16,1,1,0,0,0-1-.79,1.08,1.08,0,0,0-.62.17,1.15,1.15,0,0,0-.39.62,5.69,5.69,0,0,0-.19,1.16c0,.48,0,1.09,0,1.83S210.35,281.84,210.38,282.33Z"/><path class="bd5edd1b-b532-4bf3-a563-8219756e5b66" d="M224.12,269.42v3.35h-4.51v-3.35Zm0,4.33v13.53h-4.51V273.75Z"/><path class="bd5edd1b-b532-4bf3-a563-8219756e5b66" d="M237.69,283.13a6.07,6.07,0,0,1-.79,2.26,4.25,4.25,0,0,1-1.74,1.58,6.68,6.68,0,0,1-3,.59A7.44,7.44,0,0,1,229,287a3.82,3.82,0,0,1-1.73-1.5,5.86,5.86,0,0,1-.74-2.25,21.87,21.87,0,0,1-.16-2.77,17.21,17.21,0,0,1,.19-2.6,6,6,0,0,1,.78-2.28,4.52,4.52,0,0,1,1.74-1.61,6.44,6.44,0,0,1,3-.61,7.16,7.16,0,0,1,3.13.56A4,4,0,0,1,237,275.5a5.74,5.74,0,0,1,.73,2.26,21.8,21.8,0,0,1,.17,2.77A18.61,18.61,0,0,1,237.69,283.13Zm-6.77-.51a5.83,5.83,0,0,0,.2,1.28,1.21,1.21,0,0,0,.39.65,1,1,0,0,0,.61.18,1.07,1.07,0,0,0,.63-.18,1.15,1.15,0,0,0,.39-.65,6,6,0,0,0,.18-1.28c0-.55.05-1.24.05-2.09s0-1.55-.05-2.11a6.23,6.23,0,0,0-.18-1.3,1.23,1.23,0,0,0-.39-.65,1.14,1.14,0,0,0-.63-.17,1,1,0,0,0-.61.17,1.29,1.29,0,0,0-.39.65,6,6,0,0,0-.2,1.3c0,.56,0,1.26,0,2.11S230.89,282.07,230.92,282.62Z"/><path class="bd5edd1b-b532-4bf3-a563-8219756e5b66" d="M244.63,269.42v17.86h-4.5V269.42Z"/><path class="bd5edd1b-b532-4bf3-a563-8219756e5b66" d="M258.2,283.13a5.89,5.89,0,0,1-.78,2.26,4.25,4.25,0,0,1-1.74,1.58,6.68,6.68,0,0,1-3,.59,7.49,7.49,0,0,1-3.13-.54,3.88,3.88,0,0,1-1.73-1.5,5.69,5.69,0,0,1-.73-2.25,21.8,21.8,0,0,1-.17-2.77,18.61,18.61,0,0,1,.19-2.6,6.23,6.23,0,0,1,.79-2.28A4.45,4.45,0,0,1,249.6,274a6.41,6.41,0,0,1,3-.61,7.08,7.08,0,0,1,3.12.56,3.9,3.9,0,0,1,1.73,1.54,5.74,5.74,0,0,1,.74,2.26,21.87,21.87,0,0,1,.16,2.77A17.21,17.21,0,0,1,258.2,283.13Zm-6.76-.51a5.28,5.28,0,0,0,.2,1.28,1.27,1.27,0,0,0,.38.65,1.16,1.16,0,0,0,1.24,0,1.1,1.1,0,0,0,.39-.65,6.61,6.61,0,0,0,.19-1.28c0-.55,0-1.24,0-2.09s0-1.55,0-2.11a6.86,6.86,0,0,0-.19-1.3,1.17,1.17,0,0,0-.39-.65,1.22,1.22,0,0,0-1.24,0,1.36,1.36,0,0,0-.38.65,5.47,5.47,0,0,0-.2,1.3c0,.56-.05,1.26-.05,2.11S251.4,282.07,251.44,282.62Z"/><path class="bd5edd1b-b532-4bf3-a563-8219756e5b66" d="M271.7,273.75v13.31a5.13,5.13,0,0,1-.44,2.25,3.71,3.71,0,0,1-1.2,1.47,4.86,4.86,0,0,1-1.79.79,9.69,9.69,0,0,1-2.22.24,13,13,0,0,1-2-.16,4.87,4.87,0,0,1-1.66-.59,3.07,3.07,0,0,1-1.13-1.16,4.18,4.18,0,0,1-.44-1.89h4.06a1,1,0,0,0,.3.77,1.13,1.13,0,0,0,.82.28,2.73,2.73,0,0,0,.5-.05.89.89,0,0,0,.44-.23,1.16,1.16,0,0,0,.31-.5,2.41,2.41,0,0,0,.13-.9v-2.5h-.05a2.72,2.72,0,0,1-1.28,1.6,4,4,0,0,1-1.77.43,4.29,4.29,0,0,1-1.38-.25,3,3,0,0,1-1.28-1,5.71,5.71,0,0,1-.93-2,12.73,12.73,0,0,1-.37-3.41,15.71,15.71,0,0,1,.29-3.27,5.94,5.94,0,0,1,.83-2.1,3,3,0,0,1,1.31-1.13,4.44,4.44,0,0,1,1.75-.33,3.33,3.33,0,0,1,1.78.5,2.9,2.9,0,0,1,1.2,1.72h.05v-1.87Zm-6.82,8.14a4.53,4.53,0,0,0,.25,1,1.05,1.05,0,0,0,.4.5,1.26,1.26,0,0,0,.57.12,1.19,1.19,0,0,0,.54-.12,1.05,1.05,0,0,0,.4-.5,4.16,4.16,0,0,0,.23-1,15.88,15.88,0,0,0,.08-1.74,15.54,15.54,0,0,0-.08-1.71,4.16,4.16,0,0,0-.23-1,1.09,1.09,0,0,0-.4-.51,1,1,0,0,0-.54-.14,1,1,0,0,0-.57.14,1.09,1.09,0,0,0-.4.51,4.53,4.53,0,0,0-.25,1,15.54,15.54,0,0,0-.08,1.71A15.88,15.88,0,0,0,264.88,281.89Z"/><path class="bd5edd1b-b532-4bf3-a563-8219756e5b66" d="M275.2,288.43l.5,0a1.69,1.69,0,0,0,.72-.13,1.58,1.58,0,0,0,.46-.29.93.93,0,0,0,.25-.33.81.81,0,0,0,.08-.28,2,2,0,0,0-.07-.4c0-.17-.09-.34-.14-.52l-3.55-12.76h4.63l1.38,9.13h.05l1.3-9.13h4.5l-3.63,13.91a10.27,10.27,0,0,1-.68,1.94,3.89,3.89,0,0,1-.93,1.21,3,3,0,0,1-1.24.62,6.47,6.47,0,0,1-1.6.18c-.48,0-.93,0-1.34,0s-.8,0-1.19-.07v-3.15A4.61,4.61,0,0,0,275.2,288.43Z"/><path class="bd5edd1b-b532-4bf3-a563-8219756e5b66" d="M304.91,283.13a5.9,5.9,0,0,1-.79,2.26,4.28,4.28,0,0,1-1.73,1.58,6.71,6.71,0,0,1-3,.59,7.49,7.49,0,0,1-3.13-.54,3.88,3.88,0,0,1-1.73-1.5,5.86,5.86,0,0,1-.74-2.25,23.9,23.9,0,0,1-.16-2.77,17.21,17.21,0,0,1,.19-2.6,6.06,6.06,0,0,1,.79-2.28,4.45,4.45,0,0,1,1.74-1.61,6.41,6.41,0,0,1,3-.61,7.11,7.11,0,0,1,3.12.56,3.9,3.9,0,0,1,1.73,1.54,5.91,5.91,0,0,1,.74,2.26,21.87,21.87,0,0,1,.16,2.77A17.21,17.21,0,0,1,304.91,283.13Zm-6.76-.51a5.28,5.28,0,0,0,.2,1.28,1.2,1.2,0,0,0,.38.65,1,1,0,0,0,.62.18,1,1,0,0,0,.62-.18,1.1,1.1,0,0,0,.39-.65,6.61,6.61,0,0,0,.19-1.28c0-.55.05-1.24.05-2.09s0-1.55-.05-2.11a6.86,6.86,0,0,0-.19-1.3,1.17,1.17,0,0,0-.39-.65,1.1,1.1,0,0,0-.62-.17,1.08,1.08,0,0,0-.62.17,1.29,1.29,0,0,0-.38.65,5.47,5.47,0,0,0-.2,1.3c0,.56-.06,1.26-.06,2.11S298.11,282.07,298.15,282.62Z"/><path class="bd5edd1b-b532-4bf3-a563-8219756e5b66" d="M311.71,273.75v1.85h0a3,3,0,0,1,3.08-2.2,3.21,3.21,0,0,1,3.15,1.82,13.19,13.19,0,0,1,.91,5.58,14.08,14.08,0,0,1-.31,3.25,6.07,6.07,0,0,1-.83,2.09,2.83,2.83,0,0,1-1.3,1.1,4.47,4.47,0,0,1-1.72.32,3.84,3.84,0,0,1-1.71-.38,2.25,2.25,0,0,1-1.11-1.43h-.05v5.86h-4.51V273.75Zm.2,8.58a5.14,5.14,0,0,0,.18,1.16,1.08,1.08,0,0,0,.39.61,1.07,1.07,0,0,0,.63.18,1.11,1.11,0,0,0,.65-.18,1.13,1.13,0,0,0,.38-.61,4.58,4.58,0,0,0,.19-1.16c0-.49.05-1.09.05-1.83s0-1.34-.05-1.81a4.49,4.49,0,0,0-.19-1.15,1.2,1.2,0,0,0-.38-.62,1.18,1.18,0,0,0-.65-.17,1,1,0,0,0-1,.79,5,5,0,0,0-.18,1.15c0,.47-.05,1.08-.05,1.81S311.87,281.84,311.91,282.33Z"/><path class="bd5edd1b-b532-4bf3-a563-8219756e5b66" d="M325.16,283.05a2.08,2.08,0,0,0,.38,1.47,1.19,1.19,0,0,0,.85.36,1.08,1.08,0,0,0,.94-.49,3.57,3.57,0,0,0,.34-1.86h4.05a5.32,5.32,0,0,1-1.28,3.76,5.38,5.38,0,0,1-4,1.27,8.53,8.53,0,0,1-2.73-.37,3.67,3.67,0,0,1-1.78-1.2,5.14,5.14,0,0,1-1-2.19,16.05,16.05,0,0,1-.29-3.27,14.21,14.21,0,0,1,.33-3.31,5.28,5.28,0,0,1,1-2.2,4.14,4.14,0,0,1,1.79-1.24,8.1,8.1,0,0,1,2.62-.38,7.66,7.66,0,0,1,2.36.32,3.81,3.81,0,0,1,1.7,1.09,4.92,4.92,0,0,1,1,2,12.27,12.27,0,0,1,.33,3.09v1.38h-6.68Zm2.22-6.4a1,1,0,0,0-1-.5,1,1,0,0,0-1,.5,3.45,3.45,0,0,0-.27,1.57v.61h2.48v-.61A3.62,3.62,0,0,0,327.38,276.65Z"/><path class="bd5edd1b-b532-4bf3-a563-8219756e5b66" d="M338.22,273.75v1.65h0a3.26,3.26,0,0,1,3.28-2,5.58,5.58,0,0,1,1.39.16,2.49,2.49,0,0,1,1.11.59,2.83,2.83,0,0,1,.75,1.12,4.86,4.86,0,0,1,.28,1.8v10.21h-4.5v-8.93a2.36,2.36,0,0,0-.25-1.23,1.17,1.17,0,0,0-1.71,0,2.36,2.36,0,0,0-.25,1.23v8.93h-4.5V273.75Z"/><path class="bd5edd1b-b532-4bf3-a563-8219756e5b66" d="M359.51,269.42v17.86H355V269.42Z"/><path class="bd5edd1b-b532-4bf3-a563-8219756e5b66" d="M368.57,286.56c0-.25-.07-.52-.1-.81h-.05a2.66,2.66,0,0,1-1.19,1.36,3.77,3.77,0,0,1-1.86.45,4.89,4.89,0,0,1-1.74-.27,2.65,2.65,0,0,1-1.16-.78,3.15,3.15,0,0,1-.65-1.26,5.7,5.7,0,0,1-.2-1.6,6.72,6.72,0,0,1,.18-1.65,3.16,3.16,0,0,1,.62-1.21,3.54,3.54,0,0,1,1.15-.88,8.37,8.37,0,0,1,1.8-.61l1.77-.42a2,2,0,0,0,1-.52,1.38,1.38,0,0,0,.3-1c0-.83-.38-1.25-1.15-1.25a1.17,1.17,0,0,0-.95.36A2.51,2.51,0,0,0,366,278h-3.9a4.67,4.67,0,0,1,.53-2.37,3.9,3.9,0,0,1,1.3-1.37,4.55,4.55,0,0,1,1.67-.65,9.32,9.32,0,0,1,1.68-.16,12.09,12.09,0,0,1,2.16.18,4.4,4.4,0,0,1,1.7.68,3.19,3.19,0,0,1,1.11,1.32,5.38,5.38,0,0,1,.38,2.17v6.6a16.31,16.31,0,0,0,.08,1.68,3.53,3.53,0,0,0,.35,1.25h-4.35A2.92,2.92,0,0,1,368.57,286.56Zm-.43-2.51a3.3,3.3,0,0,0,.33-1.67v-1.63h-.05a.85.85,0,0,1-.61.34,3.57,3.57,0,0,0-.92.29,1.38,1.38,0,0,0-.72.66,2.59,2.59,0,0,0-.2,1.09,1.72,1.72,0,0,0,.3,1.07,1,1,0,0,0,.8.4A1.13,1.13,0,0,0,368.14,284.05Z"/><path class="bd5edd1b-b532-4bf3-a563-8219756e5b66" d="M379.8,273.75v1.65h.05a3.26,3.26,0,0,1,3.28-2,5.58,5.58,0,0,1,1.39.16,2.54,2.54,0,0,1,1.11.59,2.83,2.83,0,0,1,.75,1.12,4.86,4.86,0,0,1,.28,1.8v10.21h-4.5v-8.93a2.36,2.36,0,0,0-.25-1.23,1,1,0,0,0-.86-.37,1,1,0,0,0-.85.37,2.36,2.36,0,0,0-.25,1.23v8.93h-4.5V273.75Z"/><path class="bd5edd1b-b532-4bf3-a563-8219756e5b66" d="M400.37,273.75v13.31a5.28,5.28,0,0,1-.44,2.25,3.71,3.71,0,0,1-1.2,1.47,4.94,4.94,0,0,1-1.79.79,9.77,9.77,0,0,1-2.23.24,12.92,12.92,0,0,1-2-.16,4.93,4.93,0,0,1-1.67-.59,3,3,0,0,1-1.12-1.16,4.06,4.06,0,0,1-.44-1.89h4.05a1,1,0,0,0,.3.77,1.16,1.16,0,0,0,.83.28,2.83,2.83,0,0,0,.5-.05.94.94,0,0,0,.44-.23,1.26,1.26,0,0,0,.31-.5,2.67,2.67,0,0,0,.12-.9v-2.5H396a2.67,2.67,0,0,1-1.27,1.6,4,4,0,0,1-1.78.43,4.18,4.18,0,0,1-1.37-.25,2.93,2.93,0,0,1-1.28-1,5.71,5.71,0,0,1-.94-2,13.21,13.21,0,0,1-.36-3.41,15.71,15.71,0,0,1,.29-3.27,5.94,5.94,0,0,1,.82-2.1,3.09,3.09,0,0,1,1.32-1.13,4.4,4.4,0,0,1,1.75-.33,3.3,3.3,0,0,1,1.77.5,3,3,0,0,1,1.21,1.72h.05v-1.87Zm-6.82,8.14a4.06,4.06,0,0,0,.25,1,1,1,0,0,0,.4.5,1.25,1.25,0,0,0,.56.12,1.19,1.19,0,0,0,.54-.12,1,1,0,0,0,.4-.5,3.72,3.72,0,0,0,.24-1,16.29,16.29,0,0,0,.07-1.74,15.92,15.92,0,0,0-.07-1.71,3.72,3.72,0,0,0-.24-1,1,1,0,0,0-.4-.51,1,1,0,0,0-.54-.14.94.94,0,0,0-1,.65,4.06,4.06,0,0,0-.25,1,13.13,13.13,0,0,0-.09,1.71A13.43,13.43,0,0,0,393.55,281.89Z"/><path class="bd5edd1b-b532-4bf3-a563-8219756e5b66" d="M407.52,273.75v8.93a2.32,2.32,0,0,0,.25,1.22,1,1,0,0,0,.85.38.94.94,0,0,0,.85-.38,2.22,2.22,0,0,0,.25-1.22v-8.93h4.51v13.53h-4.35v-1.65h-.06a3.22,3.22,0,0,1-3.27,1.93,6.68,6.68,0,0,1-1.39-.14,2.51,2.51,0,0,1-1.12-.55,2.94,2.94,0,0,1-.75-1.13A5.07,5.07,0,0,1,403,284v-10.2Z"/><path class="bd5edd1b-b532-4bf3-a563-8219756e5b66" d="M423.21,286.56c0-.25-.07-.52-.1-.81h-.05a2.66,2.66,0,0,1-1.19,1.36,3.77,3.77,0,0,1-1.86.45,4.89,4.89,0,0,1-1.74-.27,2.69,2.69,0,0,1-1.17-.78,3.28,3.28,0,0,1-.65-1.26,6.09,6.09,0,0,1-.2-1.6,6.68,6.68,0,0,1,.19-1.65,3.29,3.29,0,0,1,.61-1.21,3.7,3.7,0,0,1,1.16-.88,8.37,8.37,0,0,1,1.8-.61l1.77-.42a2,2,0,0,0,1-.52,1.38,1.38,0,0,0,.3-1c0-.83-.39-1.25-1.15-1.25a1.16,1.16,0,0,0-.95.36,2.51,2.51,0,0,0-.33,1.44h-3.9a4.68,4.68,0,0,1,.52-2.37,4,4,0,0,1,1.31-1.37,4.55,4.55,0,0,1,1.67-.65,9.32,9.32,0,0,1,1.68-.16,12.09,12.09,0,0,1,2.16.18,4.4,4.4,0,0,1,1.7.68,3.1,3.1,0,0,1,1.1,1.32,5.2,5.2,0,0,1,.39,2.17v6.6a16.31,16.31,0,0,0,.08,1.68,3.33,3.33,0,0,0,.35,1.25h-4.36A3.44,3.44,0,0,1,423.21,286.56Zm-.43-2.51a3.3,3.3,0,0,0,.33-1.67v-1.63h-.05a.85.85,0,0,1-.61.34,3.57,3.57,0,0,0-.92.29,1.38,1.38,0,0,0-.72.66,2.44,2.44,0,0,0-.2,1.09,1.72,1.72,0,0,0,.3,1.07,1,1,0,0,0,.8.4A1.13,1.13,0,0,0,422.78,284.05Z"/><path class="bd5edd1b-b532-4bf3-a563-8219756e5b66" d="M441.22,273.75v13.31a5.13,5.13,0,0,1-.44,2.25,3.71,3.71,0,0,1-1.2,1.47,4.86,4.86,0,0,1-1.79.79,9.69,9.69,0,0,1-2.22.24,13.05,13.05,0,0,1-2-.16,4.87,4.87,0,0,1-1.66-.59,3.07,3.07,0,0,1-1.13-1.16,4.18,4.18,0,0,1-.44-1.89h4.06a1,1,0,0,0,.3.77,1.13,1.13,0,0,0,.82.28,2.73,2.73,0,0,0,.5-.05.89.89,0,0,0,.44-.23,1.16,1.16,0,0,0,.31-.5,2.41,2.41,0,0,0,.13-.9v-2.5h-.05a2.68,2.68,0,0,1-1.28,1.6,4,4,0,0,1-1.77.43,4.29,4.29,0,0,1-1.38-.25,2.9,2.9,0,0,1-1.27-1,5.54,5.54,0,0,1-.94-2,12.73,12.73,0,0,1-.37-3.41,15.71,15.71,0,0,1,.29-3.27,5.94,5.94,0,0,1,.83-2.1,3.07,3.07,0,0,1,1.31-1.13,4.44,4.44,0,0,1,1.75-.33,3.31,3.31,0,0,1,1.78.5,2.9,2.9,0,0,1,1.2,1.72h0v-1.87Zm-6.82,8.14a4,4,0,0,0,.26,1,1,1,0,0,0,.4.5,1.32,1.32,0,0,0,1.1,0,1.05,1.05,0,0,0,.4-.5,3.76,3.76,0,0,0,.23-1,15.88,15.88,0,0,0,.08-1.74,15.54,15.54,0,0,0-.08-1.71,3.76,3.76,0,0,0-.23-1,1.09,1.09,0,0,0-.4-.51,1.15,1.15,0,0,0-1.1,0,1,1,0,0,0-.4.51,4,4,0,0,0-.26,1,15.54,15.54,0,0,0-.08,1.71A15.88,15.88,0,0,0,434.4,281.89Z"/><path class="bd5edd1b-b532-4bf3-a563-8219756e5b66" d="M448,283.05a2.08,2.08,0,0,0,.37,1.47,1.21,1.21,0,0,0,.85.36,1.07,1.07,0,0,0,.94-.49,3.47,3.47,0,0,0,.34-1.86h4a4.52,4.52,0,0,1-5.3,5,8.58,8.58,0,0,1-2.73-.37,3.72,3.72,0,0,1-1.78-1.2,5.14,5.14,0,0,1-1-2.19,16.05,16.05,0,0,1-.29-3.27,14.21,14.21,0,0,1,.33-3.31,5.42,5.42,0,0,1,1-2.2,4,4,0,0,1,1.78-1.24,8.1,8.1,0,0,1,2.62-.38,7.61,7.61,0,0,1,2.36.32,3.81,3.81,0,0,1,1.7,1.09,4.92,4.92,0,0,1,1,2,12.22,12.22,0,0,1,.34,3.09v1.38H448Zm2.21-6.4a1.2,1.2,0,0,0-1.95,0,3.48,3.48,0,0,0-.26,1.57v.61h2.47v-.61A3.48,3.48,0,0,0,450.19,276.65Z"/></g></svg>