<?xml version="1.0" standalone="no"?>
<!DOCTYPE svg PUBLIC "-//W3C//DTD SVG 20010904//EN"
 "http://www.w3.org/TR/2001/REC-SVG-20010904/DTD/svg10.dtd">
<svg version="1.0" xmlns="http://www.w3.org/2000/svg"
 width="336.000000pt" height="148.000000pt" viewBox="0 0 336.000000 148.000000"
 preserveAspectRatio="xMidYMid meet">
<metadata>
Created by potrace 1.13, written by Peter Selinger 2001-2015
</metadata>
<g transform="translate(0.000000,148.000000) scale(0.100000,-0.100000)"
fill="#000000" stroke="none">
<path d="M580 1287 c0 -7 14 -26 31 -43 l30 -29 -168 -5 -168 -5 -3 -172 -2
-173 -60 0 c-53 0 -60 -2 -60 -20 0 -20 7 -20 795 -20 l795 0 0 -95 0 -95 127
0 128 0 95 95 96 95 482 0 c474 0 482 1 482 20 0 19 -7 20 -215 20 l-215 0 0
140 0 139 92 3 c79 3 93 6 96 21 3 16 -12 17 -208 17 -196 0 -211 -1 -208 -17
3 -15 17 -18 96 -21 l92 -3 0 -139 0 -140 -248 0 -247 0 -95 95 -95 95 -127 0
-128 0 0 -95 0 -95 -164 0 -163 0 -7 57 c-15 131 -78 196 -186 196 -107 0
-170 -66 -185 -195 l-6 -58 -360 0 -359 0 0 155 0 155 150 0 c83 0 150 -3 150
-6 0 -3 -13 -17 -30 -31 -30 -25 -38 -47 -21 -57 9 -6 123 89 130 108 5 12
-108 116 -126 116 -7 0 -13 -6 -13 -13z m723 -221 c61 -26 97 -89 97 -167 l0
-39 -150 0 -150 0 0 38 c2 129 101 212 203 168z m797 -141 l85 -85 -85 -85
-85 -85 -107 0 -108 0 0 170 0 170 108 0 107 0 85 -85z"/>
</g>
</svg>
