<?xml version="1.0" encoding="UTF-8" standalone="no"?>
<svg
   xmlns:dc="http://purl.org/dc/elements/1.1/"
   xmlns:cc="http://creativecommons.org/ns#"
   xmlns:rdf="http://www.w3.org/1999/02/22-rdf-syntax-ns#"
   xmlns:svg="http://www.w3.org/2000/svg"
   xmlns="http://www.w3.org/2000/svg"
   xmlns:sodipodi="http://sodipodi.sourceforge.net/DTD/sodipodi-0.dtd"
   xmlns:inkscape="http://www.inkscape.org/namespaces/inkscape"
   width="512"
   height="512"
   viewBox="0 0 135.46666 135.46667"
   version="1.1"
   id="svg1015"
   inkscape:export-filename="C:\Users\elros\Dropbox\SYNTHETIC BIOLOGY\SD2 Project\SBOL\New SBOL logo\resbollogo\SBOL_Logo_Simple.png"
   inkscape:export-xdpi="97.687508"
   inkscape:export-ydpi="97.687508"
   inkscape:version="1.0.2-2 (e86c870879, 2021-01-15)"
   sodipodi:docname="SBOL_Logo_Simple.svg">
  <defs
     id="defs1009" />
  <sodipodi:namedview
     id="base"
     pagecolor="#ffffff"
     bordercolor="#666666"
     borderopacity="1.0"
     inkscape:pageopacity="0.0"
     inkscape:pageshadow="2"
     inkscape:zoom="0.35"
     inkscape:cx="396.85039"
     inkscape:cy="561.25984"
     inkscape:document-units="mm"
     inkscape:current-layer="layer1"
     inkscape:document-rotation="0"
     showgrid="false"
     units="px"
     inkscape:window-width="1920"
     inkscape:window-height="963"
     inkscape:window-x="3824"
     inkscape:window-y="-16"
     inkscape:window-maximized="1" />
  <metadata
     id="metadata1012">
    <rdf:RDF>
      <cc:Work
         rdf:about="">
        <dc:format>image/svg+xml</dc:format>
        <dc:type
           rdf:resource="http://purl.org/dc/dcmitype/StillImage" />
        <dc:title />
      </cc:Work>
    </rdf:RDF>
  </metadata>
  <g
     inkscape:label="Layer 1"
     inkscape:groupmode="layer"
     id="layer1">
    <polygon
       class="cls-4"
       points=""
       id="polygon74"
       inkscape:export-xdpi="500"
       inkscape:export-ydpi="500"
       style="fill:#ffffff"
       transform="matrix(0.26458333,0,0,0.26458333,-12.583072,22.542191)" />
    <g
       id="g1619"
       transform="matrix(3.2954155,0,0,3.2954155,-114.12259,-54.33435)"
       inkscape:export-xdpi="97.421593"
       inkscape:export-ydpi="97.421593">
      <path
         class="cls-2"
         d="m 73.81926,44.238024 a 8.3396666,8.3396666 0 0 1 -3.127375,-3.204104 16.028458,16.028458 0 0 1 -3.090333,6.114521 14.493875,14.493875 0 0 0 3.124729,2.44475 3.0921001,3.0921001 0 0 0 3.092979,-5.355167 z"
         id="path68"
         inkscape:export-xdpi="500"
         inkscape:export-ydpi="500"
         style="fill:#98c255;stroke-width:0.264583" />
      <polygon
         class="cls-3"
         points="310.82,54.78 310.82,54.79 "
         id="polygon70"
         inkscape:export-xdpi="500"
         inkscape:export-ydpi="500"
         style="fill:none"
         transform="matrix(0.26458333,0,0,0.26458333,-12.583072,22.542191)" />
      <path
         class="cls-2"
         d="m 39.592761,24.484233 a 3.0876875,3.0876875 0 0 0 -3.092979,5.341937 8.3449582,8.3449582 0 0 1 3.127375,3.20675 16.028458,16.028458 0 0 1 3.087687,-6.103937 14.493875,14.493875 0 0 0 -3.122083,-2.44475 z"
         id="path72"
         inkscape:export-xdpi="500"
         inkscape:export-ydpi="500"
         style="fill:#98c255;stroke-width:0.264583" />
      <path
         class="cls-2"
         d="m 55.15026,22.542191 a 14.512396,14.512396 0 0 0 -14.49652,14.496521 8.3687707,8.3687707 0 0 1 -4.153958,7.199312 3.0876875,3.0876875 0 1 0 3.092979,5.344583 14.493875,14.493875 0 0 0 3.122083,-2.434166 14.784916,14.784916 0 0 0 1.058333,-1.166813 14.425083,14.425083 0 0 0 3.071813,-8.92175 8.3237916,8.3237916 0 0 1 15.610416,-4.026958 15.994062,15.994062 0 0 1 3.085042,-6.085417 14.448896,14.448896 0 0 0 -10.390188,-4.405312 z"
         id="path76"
         inkscape:export-xdpi="500"
         inkscape:export-ydpi="500"
         style="fill:#98c255;stroke-width:0.264583" />
      <path
         class="cls-2"
         d="m 69.654719,37.038712 a 8.3872916,8.3872916 0 0 1 4.164541,-7.212542 3.0876875,3.0876875 0 1 0 -3.092979,-5.341937 14.493875,14.493875 0 0 0 -3.124729,2.44475 14.049375,14.049375 0 0 0 -1.031875,1.182687 v 0 a 14.401271,14.401271 0 0 0 -3.090333,8.92175 v 0 a 8.3211457,8.3211457 0 0 1 -15.605125,4.029604 16.015229,16.015229 0 0 1 -3.074458,6.103938 14.483291,14.483291 0 0 0 24.854958,-10.122959"
         id="path78"
         inkscape:export-xdpi="500"
         inkscape:export-ydpi="500"
         style="fill:#98c255;stroke-width:0.264583" />
      <path
         class="cls-2"
         d="m 55.012677,43.708857 a 1.0980208,1.0980208 0 0 1 -1.098021,-1.09802 v -10.922 a 1.1006667,1.1006667 0 0 1 2.198688,0 v 10.911416 a 1.0980208,1.0980208 0 0 1 -1.100667,1.108604 z"
         id="path80"
         inkscape:export-xdpi="500"
         inkscape:export-ydpi="500"
         style="fill:#98c255;stroke-width:0.264583" />
      <path
         class="cls-2"
         d="m 51.059802,40.816962 a 1.0980208,1.0980208 0 0 1 -1.100666,-1.098021 v -5.146146 a 1.1006667,1.1006667 0 1 1 2.198687,0 v 5.146146 a 1.0980208,1.0980208 0 0 1 -1.098021,1.098021 z"
         id="path82"
         inkscape:export-xdpi="500"
         inkscape:export-ydpi="500"
         style="fill:#98c255;stroke-width:0.264583" />
      <path
         class="cls-2"
         d="m 59.25924,40.816962 a 1.0980208,1.0980208 0 0 1 -1.098021,-1.098021 v -5.146146 a 1.1006667,1.1006667 0 1 1 2.198687,0 v 5.146146 a 1.1006667,1.1006667 0 0 1 -1.100666,1.098021 z"
         id="path84"
         inkscape:export-xdpi="500"
         inkscape:export-ydpi="500"
         style="fill:#98c255;stroke-width:0.264583" />
    </g>
  </g>
</svg>
